<svg width="42" height="39" viewBox="0 0 42 39" fill="none" xmlns="http://www.w3.org/2000/svg">
<path d="M30.4305 12.2672L21.6867 4.14802C21.6089 4.07439 21.5219 4.01555 21.4295 3.97161C21.4196 3.96695 21.4098 3.96246 21.3998 3.95813C21.3885 3.9532 21.3771 3.94847 21.3656 3.94395C21.2524 3.89944 21.129 3.875 21 3.875C20.9949 3.875 20.9891 3.87505 20.984 3.87513C20.9695 3.87535 20.9556 3.87586 20.9411 3.87671C20.8368 3.88281 20.7332 3.90517 20.6344 3.94395C20.623 3.94842 20.6114 3.95322 20.6002 3.95813C20.5902 3.96249 20.5804 3.96691 20.5705 3.97161C20.4781 4.01555 20.3911 4.07439 20.3133 4.14802L11.5695 12.2672C11.1648 12.643 11.1414 13.2757 11.5172 13.6805C11.893 14.0852 12.5257 14.1086 12.9305 13.7328L20 7.16821V34.125C20 34.6773 20.4477 35.125 21 35.125C21.5523 35.125 22 34.6773 22 34.125V7.16821L29.0695 13.7328C29.4743 14.1086 30.107 14.0852 30.4828 13.6805C30.8586 13.2757 30.8352 12.643 30.4305 12.2672ZM20 4.875V4.87773V4.875Z" stroke="white" stroke-width="2" stroke-linecap="round" stroke-linejoin="round"/>
</svg>
