<svg width="40" height="38" viewBox="0 0 40 38" fill="none" xmlns="http://www.w3.org/2000/svg">
<mask id="path-1-inside-1_782_1454" fill="white">
<path d="M15.6347 38C12.8299 38 18.4395 38 15.6347 38L0.987287 37.0653C-0.493039 34.495 0.130255 25.3819 0.130255 22.3442C0.130255 13.9322 7.06441 7 15.5568 7C24.1271 7 31.1392 13.9322 31.1392 22.3442C31.1392 30.99 24.205 38 15.6347 38Z"/>
</mask>
<path d="M15.6347 38C12.8299 38 18.4395 38 15.6347 38L0.987287 37.0653C-0.493039 34.495 0.130255 25.3819 0.130255 22.3442C0.130255 13.9322 7.06441 7 15.5568 7C24.1271 7 31.1392 13.9322 31.1392 22.3442C31.1392 30.99 24.205 38 15.6347 38Z" fill="#333333"/>
<path d="M2.45956 36.7783L1.91909 34.0064L-1.02546 34.5805L-0.484987 37.3524L2.45956 36.7783ZM0.987287 37.0653L-1.6124 38.5626L-0.809425 39.9568L0.796246 40.0593L0.987287 37.0653ZM15.6347 35C15.6292 35 15.6238 35 15.6184 35C15.6129 35 15.6076 35 15.6022 35C15.5969 35 15.5915 35 15.5863 35C15.581 35 15.5757 35 15.5705 35C15.5653 35 15.5601 35 15.5549 35C15.5498 35 15.5446 35 15.5395 35C15.5344 35 15.5294 35 15.5243 35C15.5193 35 15.5143 35 15.5093 35C15.5044 35 15.4994 35 15.4945 35C15.4896 35 15.4847 35 15.4799 35C15.475 35 15.4702 35 15.4654 35C15.4606 35 15.4559 35 15.4511 35C15.4464 35 15.4417 35 15.4371 35C15.4324 35 15.4278 35 15.4231 35C15.4185 35 15.414 35 15.4094 35C15.4049 35 15.4004 35 15.3959 35C15.3914 35 15.387 35 15.3825 35C15.3781 35 15.3737 35 15.3693 35C15.365 35 15.3607 35 15.3563 35C15.352 35 15.3478 35 15.3435 35C15.3393 35 15.3351 35 15.3309 35C15.3267 35 15.3225 35 15.3184 35C15.3143 35 15.3102 35 15.3061 35C15.3021 35 15.298 35 15.294 35C15.29 35 15.286 35 15.2821 35C15.2781 35 15.2742 35 15.2703 35C15.2664 35 15.2625 35 15.2587 35C15.2549 35 15.2511 35 15.2473 35C15.2435 35 15.2397 35 15.236 35C15.2323 35 15.2286 35 15.2249 35C15.2213 35 15.2176 35 15.214 35C15.2104 35 15.2068 35 15.2033 35C15.1997 35 15.1962 35 15.1927 35C15.1892 35 15.1858 35 15.1823 35C15.1789 35 15.1755 35 15.1721 35C15.1687 35 15.1653 35 15.162 35C15.1587 35 15.1554 35 15.1521 35C15.1488 35 15.1456 35 15.1424 35C15.1391 35 15.1359 35 15.1328 35C15.1296 35 15.1265 35 15.1234 35C15.1203 35 15.1172 35 15.1141 35C15.1111 35 15.108 35 15.105 35C15.102 35 15.099 35 15.0961 35C15.0931 35 15.0902 35 15.0873 35C15.0844 35 15.0816 35 15.0787 35C15.0759 35 15.0731 35 15.0703 35C15.0675 35 15.0647 35 15.062 35C15.0592 35 15.0565 35 15.0538 35C15.0512 35 15.0485 35 15.0459 35C15.0432 35 15.0406 35 15.038 35C15.0355 35 15.0329 35 15.0304 35C15.0278 35 15.0253 35 15.0229 35C15.0204 35 15.0179 35 15.0155 35C15.0131 35 15.0107 35 15.0083 35C15.0059 35 15.0036 35 15.0012 35C14.9989 35 14.9966 35 14.9943 35C14.9921 35 14.9898 35 14.9876 35C14.9854 35 14.9831 35 14.981 35C14.9788 35 14.9766 35 14.9745 35C14.9724 35 14.9703 35 14.9682 35C14.9661 35 14.9641 35 14.9621 35C14.96 35 14.958 35 14.956 35C14.9541 35 14.9521 35 14.9502 35C14.9482 35 14.9463 35 14.9444 35C14.9426 35 14.9407 35 14.9389 35C14.937 35 14.9352 35 14.9334 35C14.9317 35 14.9299 35 14.9281 35C14.9264 35 14.9247 35 14.923 35C14.9213 35 14.9196 35 14.918 35C14.9163 35 14.9147 35 14.9131 35C14.9115 35 14.91 35 14.9084 35C14.9068 35 14.9053 35 14.9038 35C14.9023 35 14.9008 35 14.8994 35C14.8979 35 14.8965 35 14.8951 35C14.8936 35 14.8922 35 14.8909 35C14.8895 35 14.8882 35 14.8868 35C14.8855 35 14.8842 35 14.8829 35C14.8817 35 14.8804 35 14.8792 35C14.8779 35 14.8767 35 14.8755 35C14.8743 35 14.8732 35 14.872 35C14.8709 35 14.8698 35 14.8687 35C14.8676 35 14.8665 35 14.8654 35C14.8644 35 14.8633 35 14.8623 35C14.8613 35 14.8603 35 14.8593 35C14.8584 35 14.8574 35 14.8565 35C14.8556 35 14.8547 35 14.8538 35C14.8529 35 14.852 35 14.8512 35C14.8504 35 14.8495 35 14.8487 35C14.8479 35 14.8472 35 14.8464 35C14.8456 35 14.8449 35 14.8442 35C14.8435 35 14.8428 35 14.8421 35C14.8414 35 14.8408 35 14.8401 35C14.8395 35 14.8389 35 14.8383 35C14.8377 35 14.8371 35 14.8366 35C14.836 35 14.8355 35 14.835 35C14.8345 35 14.834 35 14.8335 35C14.833 35 14.8326 35 14.8322 35C14.8317 35 14.8313 35 14.8309 35C14.8305 35 14.8302 35 14.8298 35C14.8295 35 14.8291 35 14.8288 35C14.8285 35 14.8282 35 14.8279 35C14.8277 35 14.8274 35 14.8272 35C14.8269 35 14.8267 35 14.8265 35C14.8263 35 14.8262 35 14.826 35C14.8258 35 14.8257 35 14.8256 35C14.8255 35 14.8254 35 14.8253 35C14.8252 35 14.8251 35 14.8251 35C14.8251 35 14.825 35 14.825 35C14.825 38 14.825 41 14.8251 41C14.8251 41 14.8251 41 14.8252 41C14.8253 41 14.8253 41 14.8254 41C14.8256 41 14.8257 41 14.8258 41C14.826 41 14.8261 41 14.8263 41C14.8265 41 14.8267 41 14.8269 41C14.8271 41 14.8273 41 14.8275 41C14.8278 41 14.8281 41 14.8283 41C14.8286 41 14.8289 41 14.8292 41C14.8296 41 14.8299 41 14.8302 41C14.8306 41 14.831 41 14.8313 41C14.8317 41 14.8321 41 14.8326 41C14.833 41 14.8334 41 14.8339 41C14.8343 41 14.8348 41 14.8353 41C14.8358 41 14.8363 41 14.8368 41C14.8373 41 14.8378 41 14.8384 41C14.839 41 14.8395 41 14.8401 41C14.8407 41 14.8413 41 14.8419 41C14.8425 41 14.8432 41 14.8438 41C14.8445 41 14.8452 41 14.8458 41C14.8465 41 14.8472 41 14.8479 41C14.8487 41 14.8494 41 14.8501 41C14.8509 41 14.8517 41 14.8524 41C14.8532 41 14.854 41 14.8548 41C14.8556 41 14.8565 41 14.8573 41C14.8581 41 14.859 41 14.8599 41C14.8607 41 14.8616 41 14.8625 41C14.8634 41 14.8644 41 14.8653 41C14.8662 41 14.8672 41 14.8681 41C14.8691 41 14.8701 41 14.8711 41C14.8721 41 14.8731 41 14.8741 41C14.8751 41 14.8762 41 14.8772 41C14.8783 41 14.8793 41 14.8804 41C14.8815 41 14.8826 41 14.8837 41C14.8848 41 14.8859 41 14.8871 41C14.8882 41 14.8894 41 14.8905 41C14.8917 41 14.8929 41 14.8941 41C14.8953 41 14.8965 41 14.8977 41C14.8989 41 14.9001 41 14.9014 41C14.9026 41 14.9039 41 14.9052 41C14.9065 41 14.9078 41 14.9091 41C14.9104 41 14.9117 41 14.913 41C14.9143 41 14.9157 41 14.917 41C14.9184 41 14.9198 41 14.9211 41C14.9225 41 14.9239 41 14.9253 41C14.9267 41 14.9282 41 14.9296 41C14.931 41 14.9325 41 14.9339 41C14.9354 41 14.9369 41 14.9384 41C14.9398 41 14.9413 41 14.9429 41C14.9444 41 14.9459 41 14.9474 41C14.949 41 14.9505 41 14.9521 41C14.9536 41 14.9552 41 14.9568 41C14.9584 41 14.96 41 14.9616 41C14.9632 41 14.9648 41 14.9664 41C14.9681 41 14.9697 41 14.9713 41C14.973 41 14.9747 41 14.9763 41C14.978 41 14.9797 41 14.9814 41C14.9831 41 14.9848 41 14.9866 41C14.9883 41 14.99 41 14.9918 41C14.9935 41 14.9953 41 14.997 41C14.9988 41 15.0006 41 15.0024 41C15.0042 41 15.006 41 15.0078 41C15.0096 41 15.0114 41 15.0132 41C15.0151 41 15.0169 41 15.0188 41C15.0206 41 15.0225 41 15.0244 41C15.0262 41 15.0281 41 15.03 41C15.0319 41 15.0338 41 15.0357 41C15.0377 41 15.0396 41 15.0415 41C15.0435 41 15.0454 41 15.0474 41C15.0493 41 15.0513 41 15.0533 41C15.0552 41 15.0572 41 15.0592 41C15.0612 41 15.0632 41 15.0652 41C15.0672 41 15.0693 41 15.0713 41C15.0733 41 15.0754 41 15.0774 41C15.0795 41 15.0815 41 15.0836 41C15.0857 41 15.0878 41 15.0899 41C15.0919 41 15.094 41 15.0962 41C15.0983 41 15.1004 41 15.1025 41C15.1046 41 15.1068 41 15.1089 41C15.111 41 15.1132 41 15.1154 41C15.1175 41 15.1197 41 15.1219 41C15.124 41 15.1262 41 15.1284 41C15.1306 41 15.1328 41 15.135 41C15.1372 41 15.1394 41 15.1417 41C15.1439 41 15.1461 41 15.1484 41C15.1506 41 15.1529 41 15.1551 41C15.1574 41 15.1596 41 15.1619 41C15.1642 41 15.1665 41 15.1687 41C15.171 41 15.1733 41 15.1756 41C15.1779 41 15.1802 41 15.1826 41C15.1849 41 15.1872 41 15.1895 41C15.1919 41 15.1942 41 15.1966 41C15.1989 41 15.2013 41 15.2036 41C15.206 41 15.2083 41 15.2107 41C15.2131 41 15.2155 41 15.2179 41C15.2202 41 15.2226 41 15.225 41C15.2274 41 15.2298 41 15.2323 41C15.2347 41 15.2371 41 15.2395 41C15.2419 41 15.2444 41 15.2468 41C15.2492 41 15.2517 41 15.2541 41C15.2566 41 15.259 41 15.2615 41C15.264 41 15.2664 41 15.2689 41C15.2714 41 15.2739 41 15.2764 41C15.2788 41 15.2813 41 15.2838 41C15.2863 41 15.2888 41 15.2913 41C15.2938 41 15.2963 41 15.2989 41C15.3014 41 15.3039 41 15.3064 41C15.309 41 15.3115 41 15.314 41C15.3166 41 15.3191 41 15.3217 41C15.3242 41 15.3268 41 15.3293 41C15.3319 41 15.3344 41 15.337 41C15.3396 41 15.3422 41 15.3447 41C15.3473 41 15.3499 41 15.3525 41C15.3551 41 15.3576 41 15.3602 41C15.3628 41 15.3654 41 15.368 41C15.3706 41 15.3732 41 15.3759 41C15.3785 41 15.3811 41 15.3837 41C15.3863 41 15.3889 41 15.3916 41C15.3942 41 15.3968 41 15.3995 41C15.4021 41 15.4047 41 15.4074 41C15.41 41 15.4127 41 15.4153 41C15.418 41 15.4206 41 15.4233 41C15.4259 41 15.4286 41 15.4312 41C15.4339 41 15.4366 41 15.4392 41C15.4419 41 15.4446 41 15.4472 41C15.4499 41 15.4526 41 15.4553 41C15.4579 41 15.4606 41 15.4633 41C15.466 41 15.4687 41 15.4714 41C15.474 41 15.4767 41 15.4794 41C15.4821 41 15.4848 41 15.4875 41C15.4902 41 15.4929 41 15.4956 41C15.4983 41 15.501 41 15.5037 41C15.5064 41 15.5092 41 15.5119 41C15.5146 41 15.5173 41 15.52 41C15.5227 41 15.5254 41 15.5282 41C15.5309 41 15.5336 41 15.5363 41C15.539 41 15.5418 41 15.5445 41C15.5472 41 15.5499 41 15.5527 41C15.5554 41 15.5581 41 15.5608 41C15.5636 41 15.5663 41 15.569 41C15.5718 41 15.5745 41 15.5772 41C15.58 41 15.5827 41 15.5854 41C15.5882 41 15.5909 41 15.5936 41C15.5964 41 15.5991 41 15.6018 41C15.6046 41 15.6073 41 15.6101 41C15.6128 41 15.6155 41 15.6183 41C15.621 41 15.6237 41 15.6265 41C15.6292 41 15.632 41 15.6347 41C15.6374 41 15.6402 41 15.6429 41C15.6457 41 15.6484 41 15.6511 41C15.6539 41 15.6566 41 15.6593 41C15.6621 41 15.6648 41 15.6676 41C15.6703 41 15.673 41 15.6758 41C15.6785 41 15.6812 41 15.684 41C15.6867 41 15.6894 41 15.6922 41C15.6949 41 15.6976 41 15.7004 41C15.7031 41 15.7058 41 15.7086 41C15.7113 41 15.714 41 15.7167 41C15.7195 41 15.7222 41 15.7249 41C15.7276 41 15.7304 41 15.7331 41C15.7358 41 15.7385 41 15.7413 41C15.744 41 15.7467 41 15.7494 41C15.7521 41 15.7548 41 15.7575 41C15.7602 41 15.763 41 15.7657 41C15.7684 41 15.7711 41 15.7738 41C15.7765 41 15.7792 41 15.7819 41C15.7846 41 15.7873 41 15.79 41C15.7927 41 15.7954 41 15.798 41C15.8007 41 15.8034 41 15.8061 41C15.8088 41 15.8115 41 15.8141 41C15.8168 41 15.8195 41 15.8222 41C15.8248 41 15.8275 41 15.8302 41C15.8328 41 15.8355 41 15.8382 41C15.8408 41 15.8435 41 15.8461 41C15.8488 41 15.8515 41 15.8541 41C15.8567 41 15.8594 41 15.862 41C15.8647 41 15.8673 41 15.8699 41C15.8726 41 15.8752 41 15.8778 41C15.8805 41 15.8831 41 15.8857 41C15.8883 41 15.8909 41 15.8935 41C15.8962 41 15.8988 41 15.9014 41C15.904 41 15.9066 41 15.9092 41C15.9118 41 15.9143 41 15.9169 41C15.9195 41 15.9221 41 15.9247 41C15.9272 41 15.9298 41 15.9324 41C15.935 41 15.9375 41 15.9401 41C15.9426 41 15.9452 41 15.9477 41C15.9503 41 15.9528 41 15.9554 41C15.9579 41 15.9604 41 15.963 41C15.9655 41 15.968 41 15.9705 41C15.9731 41 15.9756 41 15.9781 41C15.9806 41 15.9831 41 15.9856 41C15.9881 41 15.9906 41 15.9931 41C15.9955 41 15.998 41 16.0005 41C16.003 41 16.0054 41 16.0079 41C16.0104 41 16.0128 41 16.0153 41C16.0177 41 16.0202 41 16.0226 41C16.025 41 16.0275 41 16.0299 41C16.0323 41 16.0347 41 16.0371 41C16.0396 41 16.042 41 16.0444 41C16.0468 41 16.0492 41 16.0515 41C16.0539 41 16.0563 41 16.0587 41C16.0611 41 16.0634 41 16.0658 41C16.0682 41 16.0705 41 16.0728 41C16.0752 41 16.0775 41 16.0799 41C16.0822 41 16.0845 41 16.0868 41C16.0892 41 16.0915 41 16.0938 41C16.0961 41 16.0984 41 16.1007 41C16.1029 41 16.1052 41 16.1075 41C16.1098 41 16.112 41 16.1143 41C16.1165 41 16.1188 41 16.121 41C16.1233 41 16.1255 41 16.1277 41C16.13 41 16.1322 41 16.1344 41C16.1366 41 16.1388 41 16.141 41C16.1432 41 16.1454 41 16.1475 41C16.1497 41 16.1519 41 16.1541 41C16.1562 41 16.1584 41 16.1605 41C16.1626 41 16.1648 41 16.1669 41C16.169 41 16.1711 41 16.1733 41C16.1754 41 16.1775 41 16.1795 41C16.1816 41 16.1837 41 16.1858 41C16.1879 41 16.1899 41 16.192 41C16.194 41 16.1961 41 16.1981 41C16.2001 41 16.2022 41 16.2042 41C16.2062 41 16.2082 41 16.2102 41C16.2122 41 16.2142 41 16.2161 41C16.2181 41 16.2201 41 16.222 41C16.224 41 16.226 41 16.2279 41C16.2298 41 16.2318 41 16.2337 41C16.2356 41 16.2375 41 16.2394 41C16.2413 41 16.2432 41 16.245 41C16.2469 41 16.2488 41 16.2506 41C16.2525 41 16.2543 41 16.2562 41C16.258 41 16.2598 41 16.2616 41C16.2634 41 16.2652 41 16.267 41C16.2688 41 16.2706 41 16.2724 41C16.2741 41 16.2759 41 16.2776 41C16.2794 41 16.2811 41 16.2829 41C16.2846 41 16.2863 41 16.288 41C16.2897 41 16.2914 41 16.2931 41C16.2947 41 16.2964 41 16.2981 41C16.2997 41 16.3014 41 16.303 41C16.3046 41 16.3062 41 16.3078 41C16.3094 41 16.311 41 16.3126 41C16.3142 41 16.3158 41 16.3173 41C16.3189 41 16.3204 41 16.322 41C16.3235 41 16.325 41 16.3266 41C16.3281 41 16.3296 41 16.331 41C16.3325 41 16.334 41 16.3355 41C16.3369 41 16.3384 41 16.3398 41C16.3412 41 16.3427 41 16.3441 41C16.3455 41 16.3469 41 16.3483 41C16.3496 41 16.351 41 16.3524 41C16.3537 41 16.3551 41 16.3564 41C16.3577 41 16.359 41 16.3603 41C16.3617 41 16.3629 41 16.3642 41C16.3655 41 16.3668 41 16.368 41C16.3693 41 16.3705 41 16.3717 41C16.3729 41 16.3741 41 16.3753 41C16.3765 41 16.3777 41 16.3789 41C16.38 41 16.3812 41 16.3823 41C16.3835 41 16.3846 41 16.3857 41C16.3868 41 16.3879 41 16.389 41C16.3901 41 16.3911 41 16.3922 41C16.3932 41 16.3943 41 16.3953 41C16.3963 41 16.3973 41 16.3983 41C16.3993 41 16.4003 41 16.4013 41C16.4022 41 16.4032 41 16.4041 41C16.405 41 16.406 41 16.4069 41C16.4078 41 16.4087 41 16.4095 41C16.4104 41 16.4113 41 16.4121 41C16.4129 41 16.4138 41 16.4146 41C16.4154 41 16.4162 41 16.417 41C16.4177 41 16.4185 41 16.4193 41C16.42 41 16.4207 41 16.4215 41C16.4222 41 16.4229 41 16.4236 41C16.4242 41 16.4249 41 16.4256 41C16.4262 41 16.4269 41 16.4275 41C16.4281 41 16.4287 41 16.4293 41C16.4299 41 16.4304 41 16.431 41C16.4316 41 16.4321 41 16.4326 41C16.4331 41 16.4336 41 16.4341 41C16.4346 41 16.4351 41 16.4355 41C16.436 41 16.4364 41 16.4368 41C16.4373 41 16.4377 41 16.4381 41C16.4384 41 16.4388 41 16.4392 41C16.4395 41 16.4398 41 16.4402 41C16.4405 41 16.4408 41 16.4411 41C16.4413 41 16.4416 41 16.4419 41C16.4421 41 16.4423 41 16.4425 41C16.4428 41 16.4429 41 16.4431 41C16.4433 41 16.4435 41 16.4436 41C16.4437 41 16.4438 41 16.444 41C16.4441 41 16.4441 41 16.4442 41C16.4443 41 16.4443 41 16.4444 41C16.4444 41 16.4444 38 16.4444 35C16.4444 35 16.4444 35 16.4443 35C16.4443 35 16.4442 35 16.4441 35C16.444 35 16.4439 35 16.4438 35C16.4437 35 16.4436 35 16.4434 35C16.4432 35 16.4431 35 16.4429 35C16.4427 35 16.4425 35 16.4422 35C16.442 35 16.4417 35 16.4415 35C16.4412 35 16.4409 35 16.4406 35C16.4403 35 16.4399 35 16.4396 35C16.4392 35 16.4389 35 16.4385 35C16.4381 35 16.4377 35 16.4372 35C16.4368 35 16.4364 35 16.4359 35C16.4354 35 16.4349 35 16.4344 35C16.4339 35 16.4334 35 16.4328 35C16.4323 35 16.4317 35 16.4311 35C16.4305 35 16.4299 35 16.4293 35C16.4286 35 16.428 35 16.4273 35C16.4266 35 16.4259 35 16.4252 35C16.4245 35 16.4238 35 16.423 35C16.4223 35 16.4215 35 16.4207 35C16.4199 35 16.4191 35 16.4182 35C16.4174 35 16.4165 35 16.4156 35C16.4147 35 16.4138 35 16.4129 35C16.412 35 16.411 35 16.4101 35C16.4091 35 16.4081 35 16.4071 35C16.4061 35 16.405 35 16.404 35C16.4029 35 16.4018 35 16.4007 35C16.3996 35 16.3985 35 16.3974 35C16.3962 35 16.3951 35 16.3939 35C16.3927 35 16.3915 35 16.3902 35C16.389 35 16.3877 35 16.3865 35C16.3852 35 16.3839 35 16.3826 35C16.3812 35 16.3799 35 16.3785 35C16.3772 35 16.3758 35 16.3743 35C16.3729 35 16.3715 35 16.37 35C16.3686 35 16.3671 35 16.3656 35C16.3641 35 16.3626 35 16.361 35C16.3595 35 16.3579 35 16.3563 35C16.3547 35 16.3531 35 16.3514 35C16.3498 35 16.3481 35 16.3464 35C16.3447 35 16.343 35 16.3413 35C16.3395 35 16.3378 35 16.336 35C16.3342 35 16.3324 35 16.3305 35C16.3287 35 16.3268 35 16.325 35C16.3231 35 16.3212 35 16.3192 35C16.3173 35 16.3153 35 16.3134 35C16.3114 35 16.3094 35 16.3074 35C16.3053 35 16.3033 35 16.3012 35C16.2991 35 16.297 35 16.2949 35C16.2928 35 16.2906 35 16.2884 35C16.2863 35 16.2841 35 16.2818 35C16.2796 35 16.2773 35 16.2751 35C16.2728 35 16.2705 35 16.2682 35C16.2658 35 16.2635 35 16.2611 35C16.2587 35 16.2563 35 16.2539 35C16.2515 35 16.249 35 16.2465 35C16.2441 35 16.2416 35 16.239 35C16.2365 35 16.2339 35 16.2314 35C16.2288 35 16.2262 35 16.2235 35C16.2209 35 16.2182 35 16.2156 35C16.2129 35 16.2102 35 16.2074 35C16.2047 35 16.2019 35 16.1991 35C16.1963 35 16.1935 35 16.1907 35C16.1878 35 16.185 35 16.1821 35C16.1792 35 16.1763 35 16.1733 35C16.1704 35 16.1674 35 16.1644 35C16.1614 35 16.1583 35 16.1553 35C16.1522 35 16.1491 35 16.146 35C16.1429 35 16.1398 35 16.1366 35C16.1335 35 16.1303 35 16.127 35C16.1238 35 16.1206 35 16.1173 35C16.114 35 16.1107 35 16.1074 35C16.1041 35 16.1007 35 16.0973 35C16.0939 35 16.0905 35 16.0871 35C16.0836 35 16.0802 35 16.0767 35C16.0732 35 16.0697 35 16.0661 35C16.0626 35 16.059 35 16.0554 35C16.0518 35 16.0481 35 16.0445 35C16.0408 35 16.0371 35 16.0334 35C16.0297 35 16.0259 35 16.0221 35C16.0183 35 16.0145 35 16.0107 35C16.0069 35 16.003 35 15.9991 35C15.9952 35 15.9913 35 15.9873 35C15.9834 35 15.9794 35 15.9754 35C15.9714 35 15.9673 35 15.9633 35C15.9592 35 15.9551 35 15.951 35C15.9469 35 15.9427 35 15.9385 35C15.9343 35 15.9301 35 15.9259 35C15.9216 35 15.9174 35 15.9131 35C15.9088 35 15.9044 35 15.9001 35C15.8957 35 15.8913 35 15.8869 35C15.8825 35 15.878 35 15.8735 35C15.869 35 15.8645 35 15.86 35C15.8554 35 15.8509 35 15.8463 35C15.8417 35 15.837 35 15.8324 35C15.8277 35 15.823 35 15.8183 35C15.8135 35 15.8088 35 15.804 35C15.7992 35 15.7944 35 15.7895 35C15.7847 35 15.7798 35 15.7749 35C15.77 35 15.7651 35 15.7601 35C15.7551 35 15.7501 35 15.7451 35C15.74 35 15.735 35 15.7299 35C15.7248 35 15.7196 35 15.7145 35C15.7093 35 15.7041 35 15.6989 35C15.6937 35 15.6884 35 15.6831 35C15.6779 35 15.6725 35 15.6672 35C15.6618 35 15.6565 35 15.651 35C15.6456 35 15.6402 35 15.6347 35V41C15.6402 41 15.6456 41 15.651 41C15.6565 41 15.6618 41 15.6672 41C15.6725 41 15.6779 41 15.6831 41C15.6884 41 15.6937 41 15.6989 41C15.7041 41 15.7093 41 15.7145 41C15.7196 41 15.7248 41 15.7299 41C15.735 41 15.74 41 15.7451 41C15.7501 41 15.7551 41 15.7601 41C15.7651 41 15.77 41 15.7749 41C15.7798 41 15.7847 41 15.7895 41C15.7944 41 15.7992 41 15.804 41C15.8088 41 15.8135 41 15.8183 41C15.823 41 15.8277 41 15.8324 41C15.837 41 15.8417 41 15.8463 41C15.8509 41 15.8554 41 15.86 41C15.8645 41 15.869 41 15.8735 41C15.878 41 15.8825 41 15.8869 41C15.8913 41 15.8957 41 15.9001 41C15.9044 41 15.9088 41 15.9131 41C15.9174 41 15.9216 41 15.9259 41C15.9301 41 15.9343 41 15.9385 41C15.9427 41 15.9469 41 15.951 41C15.9551 41 15.9592 41 15.9633 41C15.9673 41 15.9714 41 15.9754 41C15.9794 41 15.9834 41 15.9873 41C15.9913 41 15.9952 41 15.9991 41C16.003 41 16.0069 41 16.0107 41C16.0145 41 16.0183 41 16.0221 41C16.0259 41 16.0297 41 16.0334 41C16.0371 41 16.0408 41 16.0445 41C16.0481 41 16.0518 41 16.0554 41C16.059 41 16.0626 41 16.0661 41C16.0697 41 16.0732 41 16.0767 41C16.0802 41 16.0836 41 16.0871 41C16.0905 41 16.0939 41 16.0973 41C16.1007 41 16.1041 41 16.1074 41C16.1107 41 16.114 41 16.1173 41C16.1206 41 16.1238 41 16.127 41C16.1303 41 16.1335 41 16.1366 41C16.1398 41 16.1429 41 16.146 41C16.1491 41 16.1522 41 16.1553 41C16.1583 41 16.1614 41 16.1644 41C16.1674 41 16.1704 41 16.1733 41C16.1763 41 16.1792 41 16.1821 41C16.185 41 16.1878 41 16.1907 41C16.1935 41 16.1963 41 16.1991 41C16.2019 41 16.2047 41 16.2074 41C16.2102 41 16.2129 41 16.2156 41C16.2182 41 16.2209 41 16.2235 41C16.2262 41 16.2288 41 16.2314 41C16.2339 41 16.2365 41 16.239 41C16.2416 41 16.2441 41 16.2465 41C16.249 41 16.2515 41 16.2539 41C16.2563 41 16.2587 41 16.2611 41C16.2635 41 16.2658 41 16.2682 41C16.2705 41 16.2728 41 16.2751 41C16.2773 41 16.2796 41 16.2818 41C16.2841 41 16.2863 41 16.2884 41C16.2906 41 16.2928 41 16.2949 41C16.297 41 16.2991 41 16.3012 41C16.3033 41 16.3053 41 16.3074 41C16.3094 41 16.3114 41 16.3134 41C16.3153 41 16.3173 41 16.3192 41C16.3212 41 16.3231 41 16.325 41C16.3268 41 16.3287 41 16.3305 41C16.3324 41 16.3342 41 16.336 41C16.3378 41 16.3395 41 16.3413 41C16.343 41 16.3447 41 16.3464 41C16.3481 41 16.3498 41 16.3514 41C16.3531 41 16.3547 41 16.3563 41C16.3579 41 16.3595 41 16.361 41C16.3626 41 16.3641 41 16.3656 41C16.3671 41 16.3686 41 16.37 41C16.3715 41 16.3729 41 16.3743 41C16.3758 41 16.3772 41 16.3785 41C16.3799 41 16.3812 41 16.3826 41C16.3839 41 16.3852 41 16.3865 41C16.3877 41 16.389 41 16.3902 41C16.3915 41 16.3927 41 16.3939 41C16.3951 41 16.3962 41 16.3974 41C16.3985 41 16.3996 41 16.4007 41C16.4018 41 16.4029 41 16.404 41C16.405 41 16.4061 41 16.4071 41C16.4081 41 16.4091 41 16.4101 41C16.411 41 16.412 41 16.4129 41C16.4138 41 16.4147 41 16.4156 41C16.4165 41 16.4174 41 16.4182 41C16.4191 41 16.4199 41 16.4207 41C16.4215 41 16.4223 41 16.423 41C16.4238 41 16.4245 41 16.4252 41C16.4259 41 16.4266 41 16.4273 41C16.428 41 16.4286 41 16.4293 41C16.4299 41 16.4305 41 16.4311 41C16.4317 41 16.4323 41 16.4328 41C16.4334 41 16.4339 41 16.4344 41C16.4349 41 16.4354 41 16.4359 41C16.4364 41 16.4368 41 16.4372 41C16.4377 41 16.4381 41 16.4385 41C16.4389 41 16.4392 41 16.4396 41C16.4399 41 16.4403 41 16.4406 41C16.4409 41 16.4412 41 16.4415 41C16.4417 41 16.442 41 16.4422 41C16.4425 41 16.4427 41 16.4429 41C16.4431 41 16.4432 41 16.4434 41C16.4436 41 16.4437 41 16.4438 41C16.4439 41 16.444 41 16.4441 41C16.4442 41 16.4443 41 16.4443 41C16.4444 41 16.4444 41 16.4444 41C16.4444 38 16.4444 35 16.4444 35C16.4443 35 16.4443 35 16.4442 35C16.4441 35 16.4441 35 16.444 35C16.4438 35 16.4437 35 16.4436 35C16.4435 35 16.4433 35 16.4431 35C16.4429 35 16.4428 35 16.4425 35C16.4423 35 16.4421 35 16.4419 35C16.4416 35 16.4413 35 16.4411 35C16.4408 35 16.4405 35 16.4402 35C16.4398 35 16.4395 35 16.4392 35C16.4388 35 16.4384 35 16.4381 35C16.4377 35 16.4373 35 16.4368 35C16.4364 35 16.436 35 16.4355 35C16.4351 35 16.4346 35 16.4341 35C16.4336 35 16.4331 35 16.4326 35C16.4321 35 16.4316 35 16.431 35C16.4304 35 16.4299 35 16.4293 35C16.4287 35 16.4281 35 16.4275 35C16.4269 35 16.4262 35 16.4256 35C16.4249 35 16.4242 35 16.4236 35C16.4229 35 16.4222 35 16.4215 35C16.4207 35 16.42 35 16.4193 35C16.4185 35 16.4177 35 16.417 35C16.4162 35 16.4154 35 16.4146 35C16.4138 35 16.4129 35 16.4121 35C16.4113 35 16.4104 35 16.4095 35C16.4087 35 16.4078 35 16.4069 35C16.406 35 16.405 35 16.4041 35C16.4032 35 16.4022 35 16.4013 35C16.4003 35 16.3993 35 16.3983 35C16.3973 35 16.3963 35 16.3953 35C16.3943 35 16.3932 35 16.3922 35C16.3911 35 16.3901 35 16.389 35C16.3879 35 16.3868 35 16.3857 35C16.3846 35 16.3835 35 16.3823 35C16.3812 35 16.38 35 16.3789 35C16.3777 35 16.3765 35 16.3753 35C16.3741 35 16.3729 35 16.3717 35C16.3705 35 16.3693 35 16.368 35C16.3668 35 16.3655 35 16.3642 35C16.3629 35 16.3617 35 16.3603 35C16.359 35 16.3577 35 16.3564 35C16.3551 35 16.3537 35 16.3524 35C16.351 35 16.3496 35 16.3483 35C16.3469 35 16.3455 35 16.3441 35C16.3427 35 16.3412 35 16.3398 35C16.3384 35 16.3369 35 16.3355 35C16.334 35 16.3325 35 16.331 35C16.3296 35 16.3281 35 16.3266 35C16.325 35 16.3235 35 16.322 35C16.3204 35 16.3189 35 16.3173 35C16.3158 35 16.3142 35 16.3126 35C16.311 35 16.3094 35 16.3078 35C16.3062 35 16.3046 35 16.303 35C16.3014 35 16.2997 35 16.2981 35C16.2964 35 16.2947 35 16.2931 35C16.2914 35 16.2897 35 16.288 35C16.2863 35 16.2846 35 16.2829 35C16.2811 35 16.2794 35 16.2776 35C16.2759 35 16.2741 35 16.2724 35C16.2706 35 16.2688 35 16.267 35C16.2652 35 16.2634 35 16.2616 35C16.2598 35 16.258 35 16.2562 35C16.2543 35 16.2525 35 16.2506 35C16.2488 35 16.2469 35 16.245 35C16.2432 35 16.2413 35 16.2394 35C16.2375 35 16.2356 35 16.2337 35C16.2318 35 16.2298 35 16.2279 35C16.226 35 16.224 35 16.222 35C16.2201 35 16.2181 35 16.2161 35C16.2142 35 16.2122 35 16.2102 35C16.2082 35 16.2062 35 16.2042 35C16.2022 35 16.2001 35 16.1981 35C16.1961 35 16.194 35 16.192 35C16.1899 35 16.1879 35 16.1858 35C16.1837 35 16.1816 35 16.1795 35C16.1775 35 16.1754 35 16.1733 35C16.1711 35 16.169 35 16.1669 35C16.1648 35 16.1626 35 16.1605 35C16.1584 35 16.1562 35 16.1541 35C16.1519 35 16.1497 35 16.1475 35C16.1454 35 16.1432 35 16.141 35C16.1388 35 16.1366 35 16.1344 35C16.1322 35 16.13 35 16.1277 35C16.1255 35 16.1233 35 16.121 35C16.1188 35 16.1165 35 16.1143 35C16.112 35 16.1098 35 16.1075 35C16.1052 35 16.1029 35 16.1007 35C16.0984 35 16.0961 35 16.0938 35C16.0915 35 16.0892 35 16.0868 35C16.0845 35 16.0822 35 16.0799 35C16.0775 35 16.0752 35 16.0728 35C16.0705 35 16.0682 35 16.0658 35C16.0634 35 16.0611 35 16.0587 35C16.0563 35 16.0539 35 16.0515 35C16.0492 35 16.0468 35 16.0444 35C16.042 35 16.0396 35 16.0371 35C16.0347 35 16.0323 35 16.0299 35C16.0275 35 16.025 35 16.0226 35C16.0202 35 16.0177 35 16.0153 35C16.0128 35 16.0104 35 16.0079 35C16.0054 35 16.003 35 16.0005 35C15.998 35 15.9955 35 15.9931 35C15.9906 35 15.9881 35 15.9856 35C15.9831 35 15.9806 35 15.9781 35C15.9756 35 15.9731 35 15.9705 35C15.968 35 15.9655 35 15.963 35C15.9604 35 15.9579 35 15.9554 35C15.9528 35 15.9503 35 15.9477 35C15.9452 35 15.9426 35 15.9401 35C15.9375 35 15.935 35 15.9324 35C15.9298 35 15.9272 35 15.9247 35C15.9221 35 15.9195 35 15.9169 35C15.9143 35 15.9118 35 15.9092 35C15.9066 35 15.904 35 15.9014 35C15.8988 35 15.8962 35 15.8935 35C15.8909 35 15.8883 35 15.8857 35C15.8831 35 15.8805 35 15.8778 35C15.8752 35 15.8726 35 15.8699 35C15.8673 35 15.8647 35 15.862 35C15.8594 35 15.8567 35 15.8541 35C15.8515 35 15.8488 35 15.8461 35C15.8435 35 15.8408 35 15.8382 35C15.8355 35 15.8328 35 15.8302 35C15.8275 35 15.8248 35 15.8222 35C15.8195 35 15.8168 35 15.8141 35C15.8115 35 15.8088 35 15.8061 35C15.8034 35 15.8007 35 15.798 35C15.7954 35 15.7927 35 15.79 35C15.7873 35 15.7846 35 15.7819 35C15.7792 35 15.7765 35 15.7738 35C15.7711 35 15.7684 35 15.7657 35C15.763 35 15.7602 35 15.7575 35C15.7548 35 15.7521 35 15.7494 35C15.7467 35 15.744 35 15.7413 35C15.7385 35 15.7358 35 15.7331 35C15.7304 35 15.7276 35 15.7249 35C15.7222 35 15.7195 35 15.7167 35C15.714 35 15.7113 35 15.7086 35C15.7058 35 15.7031 35 15.7004 35C15.6976 35 15.6949 35 15.6922 35C15.6894 35 15.6867 35 15.684 35C15.6812 35 15.6785 35 15.6758 35C15.673 35 15.6703 35 15.6676 35C15.6648 35 15.6621 35 15.6593 35C15.6566 35 15.6539 35 15.6511 35C15.6484 35 15.6457 35 15.6429 35C15.6402 35 15.6374 35 15.6347 35C15.632 35 15.6292 35 15.6265 35C15.6237 35 15.621 35 15.6183 35C15.6155 35 15.6128 35 15.6101 35C15.6073 35 15.6046 35 15.6018 35C15.5991 35 15.5964 35 15.5936 35C15.5909 35 15.5882 35 15.5854 35C15.5827 35 15.58 35 15.5772 35C15.5745 35 15.5718 35 15.569 35C15.5663 35 15.5636 35 15.5608 35C15.5581 35 15.5554 35 15.5527 35C15.5499 35 15.5472 35 15.5445 35C15.5418 35 15.539 35 15.5363 35C15.5336 35 15.5309 35 15.5282 35C15.5254 35 15.5227 35 15.52 35C15.5173 35 15.5146 35 15.5119 35C15.5092 35 15.5064 35 15.5037 35C15.501 35 15.4983 35 15.4956 35C15.4929 35 15.4902 35 15.4875 35C15.4848 35 15.4821 35 15.4794 35C15.4767 35 15.474 35 15.4714 35C15.4687 35 15.466 35 15.4633 35C15.4606 35 15.4579 35 15.4553 35C15.4526 35 15.4499 35 15.4472 35C15.4446 35 15.4419 35 15.4392 35C15.4366 35 15.4339 35 15.4312 35C15.4286 35 15.4259 35 15.4233 35C15.4206 35 15.418 35 15.4153 35C15.4127 35 15.41 35 15.4074 35C15.4047 35 15.4021 35 15.3995 35C15.3968 35 15.3942 35 15.3916 35C15.3889 35 15.3863 35 15.3837 35C15.3811 35 15.3785 35 15.3759 35C15.3732 35 15.3706 35 15.368 35C15.3654 35 15.3628 35 15.3602 35C15.3576 35 15.3551 35 15.3525 35C15.3499 35 15.3473 35 15.3447 35C15.3422 35 15.3396 35 15.337 35C15.3344 35 15.3319 35 15.3293 35C15.3268 35 15.3242 35 15.3217 35C15.3191 35 15.3166 35 15.314 35C15.3115 35 15.309 35 15.3064 35C15.3039 35 15.3014 35 15.2989 35C15.2963 35 15.2938 35 15.2913 35C15.2888 35 15.2863 35 15.2838 35C15.2813 35 15.2788 35 15.2764 35C15.2739 35 15.2714 35 15.2689 35C15.2664 35 15.264 35 15.2615 35C15.259 35 15.2566 35 15.2541 35C15.2517 35 15.2492 35 15.2468 35C15.2444 35 15.2419 35 15.2395 35C15.2371 35 15.2347 35 15.2323 35C15.2298 35 15.2274 35 15.225 35C15.2226 35 15.2202 35 15.2179 35C15.2155 35 15.2131 35 15.2107 35C15.2083 35 15.206 35 15.2036 35C15.2013 35 15.1989 35 15.1966 35C15.1942 35 15.1919 35 15.1895 35C15.1872 35 15.1849 35 15.1826 35C15.1802 35 15.1779 35 15.1756 35C15.1733 35 15.171 35 15.1687 35C15.1665 35 15.1642 35 15.1619 35C15.1596 35 15.1574 35 15.1551 35C15.1529 35 15.1506 35 15.1484 35C15.1461 35 15.1439 35 15.1417 35C15.1394 35 15.1372 35 15.135 35C15.1328 35 15.1306 35 15.1284 35C15.1262 35 15.124 35 15.1219 35C15.1197 35 15.1175 35 15.1154 35C15.1132 35 15.111 35 15.1089 35C15.1068 35 15.1046 35 15.1025 35C15.1004 35 15.0983 35 15.0962 35C15.094 35 15.0919 35 15.0899 35C15.0878 35 15.0857 35 15.0836 35C15.0815 35 15.0795 35 15.0774 35C15.0754 35 15.0733 35 15.0713 35C15.0693 35 15.0672 35 15.0652 35C15.0632 35 15.0612 35 15.0592 35C15.0572 35 15.0552 35 15.0533 35C15.0513 35 15.0493 35 15.0474 35C15.0454 35 15.0435 35 15.0415 35C15.0396 35 15.0377 35 15.0357 35C15.0338 35 15.0319 35 15.03 35C15.0281 35 15.0262 35 15.0244 35C15.0225 35 15.0206 35 15.0188 35C15.0169 35 15.0151 35 15.0132 35C15.0114 35 15.0096 35 15.0078 35C15.006 35 15.0042 35 15.0024 35C15.0006 35 14.9988 35 14.997 35C14.9953 35 14.9935 35 14.9918 35C14.99 35 14.9883 35 14.9866 35C14.9848 35 14.9831 35 14.9814 35C14.9797 35 14.978 35 14.9763 35C14.9747 35 14.973 35 14.9713 35C14.9697 35 14.9681 35 14.9664 35C14.9648 35 14.9632 35 14.9616 35C14.96 35 14.9584 35 14.9568 35C14.9552 35 14.9536 35 14.9521 35C14.9505 35 14.949 35 14.9474 35C14.9459 35 14.9444 35 14.9429 35C14.9413 35 14.9398 35 14.9384 35C14.9369 35 14.9354 35 14.9339 35C14.9325 35 14.931 35 14.9296 35C14.9282 35 14.9267 35 14.9253 35C14.9239 35 14.9225 35 14.9211 35C14.9198 35 14.9184 35 14.917 35C14.9157 35 14.9143 35 14.913 35C14.9117 35 14.9104 35 14.9091 35C14.9078 35 14.9065 35 14.9052 35C14.9039 35 14.9026 35 14.9014 35C14.9001 35 14.8989 35 14.8977 35C14.8965 35 14.8953 35 14.8941 35C14.8929 35 14.8917 35 14.8905 35C14.8894 35 14.8882 35 14.8871 35C14.8859 35 14.8848 35 14.8837 35C14.8826 35 14.8815 35 14.8804 35C14.8793 35 14.8783 35 14.8772 35C14.8762 35 14.8751 35 14.8741 35C14.8731 35 14.8721 35 14.8711 35C14.8701 35 14.8691 35 14.8681 35C14.8672 35 14.8662 35 14.8653 35C14.8644 35 14.8634 35 14.8625 35C14.8616 35 14.8607 35 14.8599 35C14.859 35 14.8581 35 14.8573 35C14.8565 35 14.8556 35 14.8548 35C14.854 35 14.8532 35 14.8524 35C14.8517 35 14.8509 35 14.8501 35C14.8494 35 14.8487 35 14.8479 35C14.8472 35 14.8465 35 14.8458 35C14.8452 35 14.8445 35 14.8438 35C14.8432 35 14.8425 35 14.8419 35C14.8413 35 14.8407 35 14.8401 35C14.8395 35 14.839 35 14.8384 35C14.8378 35 14.8373 35 14.8368 35C14.8363 35 14.8358 35 14.8353 35C14.8348 35 14.8343 35 14.8339 35C14.8334 35 14.833 35 14.8326 35C14.8321 35 14.8317 35 14.8313 35C14.831 35 14.8306 35 14.8302 35C14.8299 35 14.8296 35 14.8292 35C14.8289 35 14.8286 35 14.8283 35C14.8281 35 14.8278 35 14.8275 35C14.8273 35 14.8271 35 14.8269 35C14.8267 35 14.8265 35 14.8263 35C14.8261 35 14.826 35 14.8258 35C14.8257 35 14.8256 35 14.8254 35C14.8253 35 14.8253 35 14.8252 35C14.8251 35 14.8251 35 14.8251 35C14.825 35 14.825 38 14.825 41C14.825 41 14.8251 41 14.8251 41C14.8251 41 14.8252 41 14.8253 41C14.8254 41 14.8255 41 14.8256 41C14.8257 41 14.8258 41 14.826 41C14.8262 41 14.8263 41 14.8265 41C14.8267 41 14.8269 41 14.8272 41C14.8274 41 14.8277 41 14.8279 41C14.8282 41 14.8285 41 14.8288 41C14.8291 41 14.8295 41 14.8298 41C14.8302 41 14.8305 41 14.8309 41C14.8313 41 14.8317 41 14.8322 41C14.8326 41 14.833 41 14.8335 41C14.834 41 14.8345 41 14.835 41C14.8355 41 14.836 41 14.8366 41C14.8371 41 14.8377 41 14.8383 41C14.8389 41 14.8395 41 14.8401 41C14.8408 41 14.8414 41 14.8421 41C14.8428 41 14.8435 41 14.8442 41C14.8449 41 14.8456 41 14.8464 41C14.8472 41 14.8479 41 14.8487 41C14.8495 41 14.8504 41 14.8512 41C14.852 41 14.8529 41 14.8538 41C14.8547 41 14.8556 41 14.8565 41C14.8574 41 14.8584 41 14.8593 41C14.8603 41 14.8613 41 14.8623 41C14.8633 41 14.8644 41 14.8654 41C14.8665 41 14.8676 41 14.8687 41C14.8698 41 14.8709 41 14.872 41C14.8732 41 14.8743 41 14.8755 41C14.8767 41 14.8779 41 14.8792 41C14.8804 41 14.8817 41 14.8829 41C14.8842 41 14.8855 41 14.8868 41C14.8882 41 14.8895 41 14.8909 41C14.8922 41 14.8936 41 14.8951 41C14.8965 41 14.8979 41 14.8994 41C14.9008 41 14.9023 41 14.9038 41C14.9053 41 14.9068 41 14.9084 41C14.91 41 14.9115 41 14.9131 41C14.9147 41 14.9163 41 14.918 41C14.9196 41 14.9213 41 14.923 41C14.9247 41 14.9264 41 14.9281 41C14.9299 41 14.9317 41 14.9334 41C14.9352 41 14.937 41 14.9389 41C14.9407 41 14.9426 41 14.9444 41C14.9463 41 14.9482 41 14.9502 41C14.9521 41 14.9541 41 14.956 41C14.958 41 14.96 41 14.9621 41C14.9641 41 14.9661 41 14.9682 41C14.9703 41 14.9724 41 14.9745 41C14.9766 41 14.9788 41 14.981 41C14.9831 41 14.9854 41 14.9876 41C14.9898 41 14.9921 41 14.9943 41C14.9966 41 14.9989 41 15.0012 41C15.0036 41 15.0059 41 15.0083 41C15.0107 41 15.0131 41 15.0155 41C15.0179 41 15.0204 41 15.0229 41C15.0253 41 15.0278 41 15.0304 41C15.0329 41 15.0355 41 15.038 41C15.0406 41 15.0432 41 15.0459 41C15.0485 41 15.0512 41 15.0538 41C15.0565 41 15.0592 41 15.062 41C15.0647 41 15.0675 41 15.0703 41C15.0731 41 15.0759 41 15.0787 41C15.0816 41 15.0844 41 15.0873 41C15.0902 41 15.0931 41 15.0961 41C15.099 41 15.102 41 15.105 41C15.108 41 15.1111 41 15.1141 41C15.1172 41 15.1203 41 15.1234 41C15.1265 41 15.1296 41 15.1328 41C15.1359 41 15.1391 41 15.1424 41C15.1456 41 15.1488 41 15.1521 41C15.1554 41 15.1587 41 15.162 41C15.1653 41 15.1687 41 15.1721 41C15.1755 41 15.1789 41 15.1823 41C15.1858 41 15.1892 41 15.1927 41C15.1962 41 15.1997 41 15.2033 41C15.2068 41 15.2104 41 15.214 41C15.2176 41 15.2213 41 15.2249 41C15.2286 41 15.2323 41 15.236 41C15.2397 41 15.2435 41 15.2473 41C15.2511 41 15.2549 41 15.2587 41C15.2625 41 15.2664 41 15.2703 41C15.2742 41 15.2781 41 15.2821 41C15.286 41 15.29 41 15.294 41C15.298 41 15.3021 41 15.3061 41C15.3102 41 15.3143 41 15.3184 41C15.3225 41 15.3267 41 15.3309 41C15.3351 41 15.3393 41 15.3435 41C15.3478 41 15.352 41 15.3563 41C15.3607 41 15.365 41 15.3693 41C15.3737 41 15.3781 41 15.3825 41C15.387 41 15.3914 41 15.3959 41C15.4004 41 15.4049 41 15.4094 41C15.414 41 15.4185 41 15.4231 41C15.4278 41 15.4324 41 15.4371 41C15.4417 41 15.4464 41 15.4511 41C15.4559 41 15.4606 41 15.4654 41C15.4702 41 15.475 41 15.4799 41C15.4847 41 15.4896 41 15.4945 41C15.4994 41 15.5044 41 15.5093 41C15.5143 41 15.5193 41 15.5243 41C15.5294 41 15.5344 41 15.5395 41C15.5446 41 15.5498 41 15.5549 41C15.5601 41 15.5653 41 15.5705 41C15.5757 41 15.581 41 15.5863 41C15.5915 41 15.5969 41 15.6022 41C15.6076 41 15.6129 41 15.6184 41C15.6238 41 15.6292 41 15.6347 41V35ZM15.8257 35.0061L1.17833 34.0714L0.796246 40.0593L15.4437 40.9939L15.8257 35.0061ZM3.58697 35.5681C3.5964 35.5845 3.5272 35.459 3.43676 35.0954C3.35192 34.7542 3.27351 34.3075 3.20801 33.7549C3.07668 32.6468 3.01766 31.2942 3.0035 29.8506C2.98945 28.4175 3.01985 26.9576 3.05493 25.6446C3.08896 24.3704 3.13026 23.157 3.13026 22.3442H-2.86974C-2.86974 23.0503 -2.90636 24.1151 -2.94293 25.4844C-2.97847 26.8147 -3.01137 28.3633 -2.99621 29.9095C-2.98115 31.4451 -2.91842 33.0426 -2.75028 34.4611C-2.59635 35.7598 -2.31174 37.3483 -1.6124 38.5626L3.58697 35.5681ZM3.13026 22.3442C3.13026 15.5997 8.71057 10 15.5568 10V4C5.41825 4 -2.86974 12.2646 -2.86974 22.3442H3.13026ZM15.5568 10C22.5105 10 28.1392 15.629 28.1392 22.3442H34.1392C34.1392 12.2354 25.7437 4 15.5568 4V10ZM28.1392 22.3442C28.1392 29.3617 22.5197 35 15.6347 35V41C25.8903 41 34.1392 32.6183 34.1392 22.3442H28.1392Z" fill="#FFDD2D" mask="url(#path-1-inside-1_782_1454)"/>
<circle cx="9.66309" cy="23" r="2" fill="#FFDD2D"/>
<circle cx="15.6631" cy="23" r="2" fill="#FFDD2D"/>
<circle cx="21.6631" cy="23" r="2" fill="#FFDD2D"/>
<mask id="path-6-inside-2_782_1454" fill="white">
<path d="M22.8794 31C25.7859 31 19.9728 31 22.8794 31L38.058 30.0653C39.592 27.495 38.9461 18.3819 38.9461 15.3442C38.9461 6.93216 31.7605 0 22.9601 0C14.079 0 6.81267 6.93216 6.81267 15.3442C6.81267 23.99 13.9983 31 22.8794 31Z"/>
</mask>
<path d="M22.8794 31C25.7859 31 19.9728 31 22.8794 31L38.058 30.0653C39.592 27.495 38.9461 18.3819 38.9461 15.3442C38.9461 6.93216 31.7605 0 22.9601 0C14.079 0 6.81267 6.93216 6.81267 15.3442C6.81267 23.99 13.9983 31 22.8794 31Z" fill="#333333"/>
<path d="M36.5877 29.7683L37.1477 26.9964L40.0883 27.5906L39.5283 30.3624L36.5877 29.7683ZM38.058 30.0653L40.6341 31.6028L39.8227 32.9624L38.2423 33.0597L38.058 30.0653ZM22.8794 28C22.885 28 22.8907 28 22.8963 28C22.9019 28 22.9075 28 22.913 28C22.9186 28 22.9241 28 22.9296 28C22.935 28 22.9405 28 22.9459 28C22.9513 28 22.9567 28 22.962 28C22.9674 28 22.9727 28 22.978 28C22.9833 28 22.9885 28 22.9937 28C22.999 28 23.0041 28 23.0093 28C23.0145 28 23.0196 28 23.0247 28C23.0297 28 23.0348 28 23.0398 28C23.0449 28 23.0498 28 23.0548 28C23.0598 28 23.0647 28 23.0696 28C23.0745 28 23.0794 28 23.0842 28C23.089 28 23.0938 28 23.0986 28C23.1034 28 23.1081 28 23.1128 28C23.1175 28 23.1222 28 23.1268 28C23.1315 28 23.1361 28 23.1407 28C23.1453 28 23.1498 28 23.1544 28C23.1589 28 23.1634 28 23.1678 28C23.1723 28 23.1767 28 23.1811 28C23.1855 28 23.1899 28 23.1942 28C23.1985 28 23.2029 28 23.2071 28C23.2114 28 23.2157 28 23.2199 28C23.2241 28 23.2283 28 23.2324 28C23.2366 28 23.2407 28 23.2448 28C23.2489 28 23.253 28 23.257 28C23.261 28 23.265 28 23.269 28C23.273 28 23.2769 28 23.2808 28C23.2848 28 23.2886 28 23.2925 28C23.2964 28 23.3002 28 23.304 28C23.3078 28 23.3116 28 23.3153 28C23.319 28 23.3227 28 23.3264 28C23.3301 28 23.3338 28 23.3374 28C23.341 28 23.3446 28 23.3482 28C23.3517 28 23.3553 28 23.3588 28C23.3623 28 23.3658 28 23.3692 28C23.3727 28 23.3761 28 23.3795 28C23.3829 28 23.3862 28 23.3896 28C23.3929 28 23.3962 28 23.3995 28C23.4028 28 23.406 28 23.4093 28C23.4125 28 23.4157 28 23.4188 28C23.422 28 23.4251 28 23.4283 28C23.4314 28 23.4345 28 23.4375 28C23.4406 28 23.4436 28 23.4466 28C23.4496 28 23.4526 28 23.4555 28C23.4585 28 23.4614 28 23.4643 28C23.4672 28 23.47 28 23.4729 28C23.4757 28 23.4785 28 23.4813 28C23.4841 28 23.4868 28 23.4896 28C23.4923 28 23.495 28 23.4977 28C23.5003 28 23.503 28 23.5056 28C23.5082 28 23.5108 28 23.5134 28C23.516 28 23.5185 28 23.521 28C23.5235 28 23.526 28 23.5285 28C23.531 28 23.5334 28 23.5358 28C23.5382 28 23.5406 28 23.543 28C23.5453 28 23.5477 28 23.55 28C23.5523 28 23.5546 28 23.5568 28C23.5591 28 23.5613 28 23.5635 28C23.5657 28 23.5679 28 23.57 28C23.5722 28 23.5743 28 23.5764 28C23.5785 28 23.5806 28 23.5826 28C23.5847 28 23.5867 28 23.5887 28C23.5907 28 23.5927 28 23.5947 28C23.5966 28 23.5985 28 23.6004 28C23.6023 28 23.6042 28 23.6061 28C23.6079 28 23.6097 28 23.6115 28C23.6134 28 23.6151 28 23.6169 28C23.6186 28 23.6204 28 23.6221 28C23.6238 28 23.6255 28 23.6271 28C23.6288 28 23.6304 28 23.632 28C23.6336 28 23.6352 28 23.6368 28C23.6383 28 23.6399 28 23.6414 28C23.6429 28 23.6444 28 23.6458 28C23.6473 28 23.6488 28 23.6502 28C23.6516 28 23.653 28 23.6544 28C23.6557 28 23.6571 28 23.6584 28C23.6597 28 23.661 28 23.6623 28C23.6636 28 23.6648 28 23.6661 28C23.6673 28 23.6685 28 23.6697 28C23.6709 28 23.672 28 23.6732 28C23.6743 28 23.6754 28 23.6765 28C23.6776 28 23.6787 28 23.6798 28C23.6808 28 23.6818 28 23.6828 28C23.6839 28 23.6848 28 23.6858 28C23.6868 28 23.6877 28 23.6886 28C23.6895 28 23.6904 28 23.6913 28C23.6922 28 23.693 28 23.6938 28C23.6947 28 23.6955 28 23.6963 28C23.6971 28 23.6978 28 23.6986 28C23.6993 28 23.7 28 23.7007 28C23.7014 28 23.7021 28 23.7028 28C23.7034 28 23.704 28 23.7047 28C23.7053 28 23.7059 28 23.7064 28C23.707 28 23.7076 28 23.7081 28C23.7086 28 23.7091 28 23.7096 28C23.7101 28 23.7106 28 23.711 28C23.7115 28 23.7119 28 23.7123 28C23.7127 28 23.7131 28 23.7134 28C23.7138 28 23.7142 28 23.7145 28C23.7148 28 23.7151 28 23.7154 28C23.7157 28 23.7159 28 23.7162 28C23.7164 28 23.7166 28 23.7168 28C23.717 28 23.7172 28 23.7174 28C23.7176 28 23.7177 28 23.7178 28C23.718 28 23.7181 28 23.7181 28C23.7182 28 23.7183 28 23.7183 28C23.7184 28 23.7184 28 23.7184 28C23.7184 31 23.7184 34 23.7184 34C23.7184 34 23.7183 34 23.7182 34C23.7182 34 23.7181 34 23.718 34C23.7179 34 23.7177 34 23.7176 34C23.7175 34 23.7173 34 23.7171 34C23.7169 34 23.7167 34 23.7165 34C23.7163 34 23.7161 34 23.7158 34C23.7155 34 23.7153 34 23.715 34C23.7147 34 23.7144 34 23.714 34C23.7137 34 23.7134 34 23.713 34C23.7126 34 23.7123 34 23.7119 34C23.7115 34 23.711 34 23.7106 34C23.7102 34 23.7097 34 23.7093 34C23.7088 34 23.7083 34 23.7078 34C23.7073 34 23.7068 34 23.7062 34C23.7057 34 23.7051 34 23.7045 34C23.704 34 23.7034 34 23.7028 34C23.7022 34 23.7015 34 23.7009 34C23.7003 34 23.6996 34 23.6989 34C23.6982 34 23.6975 34 23.6968 34C23.6961 34 23.6954 34 23.6947 34C23.6939 34 23.6932 34 23.6924 34C23.6916 34 23.6908 34 23.69 34C23.6892 34 23.6884 34 23.6875 34C23.6867 34 23.6858 34 23.685 34C23.6841 34 23.6832 34 23.6823 34C23.6814 34 23.6805 34 23.6795 34C23.6786 34 23.6777 34 23.6767 34C23.6757 34 23.6747 34 23.6737 34C23.6727 34 23.6717 34 23.6707 34C23.6697 34 23.6686 34 23.6676 34C23.6665 34 23.6654 34 23.6643 34C23.6632 34 23.6621 34 23.661 34C23.6599 34 23.6588 34 23.6576 34C23.6565 34 23.6553 34 23.6541 34C23.6529 34 23.6517 34 23.6505 34C23.6493 34 23.6481 34 23.6469 34C23.6456 34 23.6444 34 23.6431 34C23.6418 34 23.6406 34 23.6393 34C23.638 34 23.6367 34 23.6353 34C23.634 34 23.6327 34 23.6313 34C23.63 34 23.6286 34 23.6272 34C23.6259 34 23.6245 34 23.6231 34C23.6217 34 23.6202 34 23.6188 34C23.6174 34 23.6159 34 23.6145 34C23.613 34 23.6115 34 23.61 34C23.6086 34 23.6071 34 23.6055 34C23.604 34 23.6025 34 23.601 34C23.5994 34 23.5979 34 23.5963 34C23.5947 34 23.5932 34 23.5916 34C23.59 34 23.5884 34 23.5868 34C23.5852 34 23.5835 34 23.5819 34C23.5802 34 23.5786 34 23.5769 34C23.5753 34 23.5736 34 23.5719 34C23.5702 34 23.5685 34 23.5668 34C23.5651 34 23.5633 34 23.5616 34C23.5599 34 23.5581 34 23.5563 34C23.5546 34 23.5528 34 23.551 34C23.5492 34 23.5474 34 23.5456 34C23.5438 34 23.542 34 23.5402 34C23.5383 34 23.5365 34 23.5346 34C23.5328 34 23.5309 34 23.529 34C23.5272 34 23.5253 34 23.5234 34C23.5215 34 23.5196 34 23.5176 34C23.5157 34 23.5138 34 23.5118 34C23.5099 34 23.5079 34 23.506 34C23.504 34 23.502 34 23.5001 34C23.4981 34 23.4961 34 23.4941 34C23.4921 34 23.49 34 23.488 34C23.486 34 23.484 34 23.4819 34C23.4799 34 23.4778 34 23.4757 34C23.4737 34 23.4716 34 23.4695 34C23.4674 34 23.4653 34 23.4632 34C23.4611 34 23.459 34 23.4569 34C23.4547 34 23.4526 34 23.4504 34C23.4483 34 23.4461 34 23.444 34C23.4418 34 23.4396 34 23.4375 34C23.4353 34 23.4331 34 23.4309 34C23.4287 34 23.4265 34 23.4242 34C23.422 34 23.4198 34 23.4176 34C23.4153 34 23.4131 34 23.4108 34C23.4086 34 23.4063 34 23.404 34C23.4018 34 23.3995 34 23.3972 34C23.3949 34 23.3926 34 23.3903 34C23.388 34 23.3857 34 23.3833 34C23.381 34 23.3787 34 23.3764 34C23.374 34 23.3717 34 23.3693 34C23.367 34 23.3646 34 23.3622 34C23.3599 34 23.3575 34 23.3551 34C23.3527 34 23.3503 34 23.3479 34C23.3455 34 23.3431 34 23.3407 34C23.3383 34 23.3358 34 23.3334 34C23.331 34 23.3285 34 23.3261 34C23.3237 34 23.3212 34 23.3187 34C23.3163 34 23.3138 34 23.3113 34C23.3089 34 23.3064 34 23.3039 34C23.3014 34 23.2989 34 23.2964 34C23.2939 34 23.2914 34 23.2889 34C23.2864 34 23.2839 34 23.2813 34C23.2788 34 23.2763 34 23.2737 34C23.2712 34 23.2687 34 23.2661 34C23.2635 34 23.261 34 23.2584 34C23.2559 34 23.2533 34 23.2507 34C23.2481 34 23.2456 34 23.243 34C23.2404 34 23.2378 34 23.2352 34C23.2326 34 23.23 34 23.2274 34C23.2248 34 23.2222 34 23.2195 34C23.2169 34 23.2143 34 23.2117 34C23.209 34 23.2064 34 23.2038 34C23.2011 34 23.1985 34 23.1958 34C23.1932 34 23.1905 34 23.1879 34C23.1852 34 23.1825 34 23.1799 34C23.1772 34 23.1745 34 23.1718 34C23.1692 34 23.1665 34 23.1638 34C23.1611 34 23.1584 34 23.1557 34C23.153 34 23.1503 34 23.1476 34C23.1449 34 23.1422 34 23.1395 34C23.1368 34 23.134 34 23.1313 34C23.1286 34 23.1259 34 23.1231 34C23.1204 34 23.1177 34 23.1149 34C23.1122 34 23.1095 34 23.1067 34C23.104 34 23.1012 34 23.0985 34C23.0957 34 23.093 34 23.0902 34C23.0875 34 23.0847 34 23.0819 34C23.0792 34 23.0764 34 23.0736 34C23.0709 34 23.0681 34 23.0653 34C23.0626 34 23.0598 34 23.057 34C23.0542 34 23.0514 34 23.0486 34C23.0459 34 23.0431 34 23.0403 34C23.0375 34 23.0347 34 23.0319 34C23.0291 34 23.0263 34 23.0235 34C23.0207 34 23.0179 34 23.0151 34C23.0123 34 23.0095 34 23.0067 34C23.0039 34 23.001 34 22.9982 34C22.9954 34 22.9926 34 22.9898 34C22.987 34 22.9842 34 22.9813 34C22.9785 34 22.9757 34 22.9729 34C22.97 34 22.9672 34 22.9644 34C22.9616 34 22.9587 34 22.9559 34C22.9531 34 22.9503 34 22.9474 34C22.9446 34 22.9418 34 22.9389 34C22.9361 34 22.9333 34 22.9304 34C22.9276 34 22.9248 34 22.9219 34C22.9191 34 22.9163 34 22.9134 34C22.9106 34 22.9078 34 22.9049 34C22.9021 34 22.8992 34 22.8964 34C22.8936 34 22.8907 34 22.8879 34C22.885 34 22.8822 34 22.8794 34C22.8765 34 22.8737 34 22.8709 34C22.868 34 22.8652 34 22.8623 34C22.8595 34 22.8567 34 22.8538 34C22.851 34 22.8482 34 22.8453 34C22.8425 34 22.8396 34 22.8368 34C22.834 34 22.8311 34 22.8283 34C22.8255 34 22.8226 34 22.8198 34C22.817 34 22.8141 34 22.8113 34C22.8085 34 22.8057 34 22.8028 34C22.8 34 22.7972 34 22.7944 34C22.7915 34 22.7887 34 22.7859 34C22.7831 34 22.7802 34 22.7774 34C22.7746 34 22.7718 34 22.769 34C22.7661 34 22.7633 34 22.7605 34C22.7577 34 22.7549 34 22.7521 34C22.7493 34 22.7465 34 22.7437 34C22.7409 34 22.7381 34 22.7353 34C22.7325 34 22.7297 34 22.7269 34C22.7241 34 22.7213 34 22.7185 34C22.7157 34 22.7129 34 22.7101 34C22.7073 34 22.7045 34 22.7018 34C22.699 34 22.6962 34 22.6934 34C22.6906 34 22.6879 34 22.6851 34C22.6823 34 22.6796 34 22.6768 34C22.674 34 22.6713 34 22.6685 34C22.6658 34 22.663 34 22.6603 34C22.6575 34 22.6548 34 22.652 34C22.6493 34 22.6465 34 22.6438 34C22.6411 34 22.6383 34 22.6356 34C22.6329 34 22.6301 34 22.6274 34C22.6247 34 22.622 34 22.6193 34C22.6166 34 22.6138 34 22.6111 34C22.6084 34 22.6057 34 22.603 34C22.6003 34 22.5976 34 22.595 34C22.5923 34 22.5896 34 22.5869 34C22.5842 34 22.5816 34 22.5789 34C22.5762 34 22.5736 34 22.5709 34C22.5682 34 22.5656 34 22.5629 34C22.5603 34 22.5576 34 22.555 34C22.5523 34 22.5497 34 22.5471 34C22.5444 34 22.5418 34 22.5392 34C22.5366 34 22.534 34 22.5314 34C22.5287 34 22.5261 34 22.5235 34C22.521 34 22.5184 34 22.5158 34C22.5132 34 22.5106 34 22.508 34C22.5055 34 22.5029 34 22.5003 34C22.4978 34 22.4952 34 22.4926 34C22.4901 34 22.4875 34 22.485 34C22.4825 34 22.4799 34 22.4774 34C22.4749 34 22.4724 34 22.4699 34C22.4673 34 22.4648 34 22.4623 34C22.4598 34 22.4573 34 22.4548 34C22.4524 34 22.4499 34 22.4474 34C22.4449 34 22.4425 34 22.44 34C22.4375 34 22.4351 34 22.4327 34C22.4302 34 22.4278 34 22.4253 34C22.4229 34 22.4205 34 22.4181 34C22.4156 34 22.4132 34 22.4108 34C22.4084 34 22.406 34 22.4037 34C22.4013 34 22.3989 34 22.3965 34C22.3942 34 22.3918 34 22.3894 34C22.3871 34 22.3847 34 22.3824 34C22.3801 34 22.3777 34 22.3754 34C22.3731 34 22.3708 34 22.3685 34C22.3662 34 22.3639 34 22.3616 34C22.3593 34 22.357 34 22.3547 34C22.3524 34 22.3502 34 22.3479 34C22.3457 34 22.3434 34 22.3412 34C22.339 34 22.3367 34 22.3345 34C22.3323 34 22.3301 34 22.3279 34C22.3257 34 22.3235 34 22.3213 34C22.3191 34 22.3169 34 22.3148 34C22.3126 34 22.3105 34 22.3083 34C22.3062 34 22.304 34 22.3019 34C22.2998 34 22.2977 34 22.2955 34C22.2934 34 22.2913 34 22.2892 34C22.2872 34 22.2851 34 22.283 34C22.2809 34 22.2789 34 22.2768 34C22.2748 34 22.2728 34 22.2707 34C22.2687 34 22.2667 34 22.2647 34C22.2627 34 22.2607 34 22.2587 34C22.2567 34 22.2547 34 22.2528 34C22.2508 34 22.2488 34 22.2469 34C22.245 34 22.243 34 22.2411 34C22.2392 34 22.2373 34 22.2354 34C22.2335 34 22.2316 34 22.2297 34C22.2278 34 22.226 34 22.2241 34C22.2223 34 22.2204 34 22.2186 34C22.2167 34 22.2149 34 22.2131 34C22.2113 34 22.2095 34 22.2077 34C22.2059 34 22.2042 34 22.2024 34C22.2006 34 22.1989 34 22.1971 34C22.1954 34 22.1937 34 22.192 34C22.1903 34 22.1885 34 22.1869 34C22.1852 34 22.1835 34 22.1818 34C22.1802 34 22.1785 34 22.1769 34C22.1752 34 22.1736 34 22.172 34C22.1704 34 22.1688 34 22.1672 34C22.1656 34 22.164 34 22.1624 34C22.1609 34 22.1593 34 22.1578 34C22.1562 34 22.1547 34 22.1532 34C22.1517 34 22.1502 34 22.1487 34C22.1472 34 22.1457 34 22.1443 34C22.1428 34 22.1414 34 22.1399 34C22.1385 34 22.1371 34 22.1357 34C22.1343 34 22.1329 34 22.1315 34C22.1301 34 22.1288 34 22.1274 34C22.1261 34 22.1247 34 22.1234 34C22.1221 34 22.1208 34 22.1195 34C22.1182 34 22.1169 34 22.1156 34C22.1144 34 22.1131 34 22.1119 34C22.1106 34 22.1094 34 22.1082 34C22.107 34 22.1058 34 22.1046 34C22.1034 34 22.1023 34 22.1011 34C22.1 34 22.0988 34 22.0977 34C22.0966 34 22.0955 34 22.0944 34C22.0933 34 22.0922 34 22.0912 34C22.0901 34 22.0891 34 22.0881 34C22.087 34 22.086 34 22.085 34C22.084 34 22.083 34 22.0821 34C22.0811 34 22.0801 34 22.0792 34C22.0783 34 22.0774 34 22.0764 34C22.0755 34 22.0747 34 22.0738 34C22.0729 34 22.0721 34 22.0712 34C22.0704 34 22.0695 34 22.0687 34C22.0679 34 22.0671 34 22.0664 34C22.0656 34 22.0648 34 22.0641 34C22.0633 34 22.0626 34 22.0619 34C22.0612 34 22.0605 34 22.0598 34C22.0592 34 22.0585 34 22.0578 34C22.0572 34 22.0566 34 22.056 34C22.0554 34 22.0548 34 22.0542 34C22.0536 34 22.0531 34 22.0525 34C22.052 34 22.0515 34 22.051 34C22.0505 34 22.05 34 22.0495 34C22.049 34 22.0486 34 22.0481 34C22.0477 34 22.0473 34 22.0469 34C22.0465 34 22.0461 34 22.0457 34C22.0454 34 22.045 34 22.0447 34C22.0444 34 22.0441 34 22.0438 34C22.0435 34 22.0432 34 22.0429 34C22.0427 34 22.0425 34 22.0422 34C22.042 34 22.0418 34 22.0416 34C22.0415 34 22.0413 34 22.0412 34C22.041 34 22.0409 34 22.0408 34C22.0407 34 22.0406 34 22.0405 34C22.0404 34 22.0404 34 22.0404 34C22.0403 34 22.0403 31 22.0403 28C22.0403 28 22.0404 28 22.0404 28C22.0405 28 22.0405 28 22.0406 28C22.0407 28 22.0408 28 22.0409 28C22.041 28 22.0412 28 22.0414 28C22.0415 28 22.0417 28 22.0419 28C22.0421 28 22.0423 28 22.0426 28C22.0428 28 22.0431 28 22.0434 28C22.0436 28 22.0439 28 22.0443 28C22.0446 28 22.0449 28 22.0453 28C22.0457 28 22.0461 28 22.0465 28C22.0469 28 22.0473 28 22.0477 28C22.0482 28 22.0486 28 22.0491 28C22.0496 28 22.0501 28 22.0507 28C22.0512 28 22.0517 28 22.0523 28C22.0529 28 22.0535 28 22.0541 28C22.0547 28 22.0553 28 22.056 28C22.0567 28 22.0573 28 22.058 28C22.0587 28 22.0594 28 22.0602 28C22.0609 28 22.0617 28 22.0625 28C22.0633 28 22.0641 28 22.0649 28C22.0657 28 22.0666 28 22.0675 28C22.0683 28 22.0692 28 22.0701 28C22.0711 28 22.072 28 22.073 28C22.0739 28 22.0749 28 22.0759 28C22.0769 28 22.0779 28 22.079 28C22.08 28 22.0811 28 22.0822 28C22.0833 28 22.0844 28 22.0856 28C22.0867 28 22.0879 28 22.0891 28C22.0902 28 22.0914 28 22.0927 28C22.0939 28 22.0952 28 22.0964 28C22.0977 28 22.099 28 22.1003 28C22.1017 28 22.103 28 22.1044 28C22.1058 28 22.1072 28 22.1086 28C22.11 28 22.1114 28 22.1129 28C22.1144 28 22.1159 28 22.1174 28C22.1189 28 22.1204 28 22.122 28C22.1235 28 22.1251 28 22.1267 28C22.1283 28 22.13 28 22.1316 28C22.1333 28 22.135 28 22.1367 28C22.1384 28 22.1401 28 22.1419 28C22.1436 28 22.1454 28 22.1472 28C22.149 28 22.1508 28 22.1527 28C22.1545 28 22.1564 28 22.1583 28C22.1602 28 22.1621 28 22.1641 28C22.166 28 22.168 28 22.17 28C22.172 28 22.174 28 22.1761 28C22.1782 28 22.1802 28 22.1823 28C22.1844 28 22.1866 28 22.1887 28C22.1909 28 22.193 28 22.1952 28C22.1975 28 22.1997 28 22.2019 28C22.2042 28 22.2065 28 22.2088 28C22.2111 28 22.2134 28 22.2158 28C22.2181 28 22.2205 28 22.2229 28C22.2253 28 22.2278 28 22.2302 28C22.2327 28 22.2352 28 22.2377 28C22.2402 28 22.2428 28 22.2453 28C22.2479 28 22.2505 28 22.2531 28C22.2558 28 22.2584 28 22.2611 28C22.2638 28 22.2665 28 22.2692 28C22.2719 28 22.2747 28 22.2775 28C22.2802 28 22.283 28 22.2859 28C22.2887 28 22.2916 28 22.2945 28C22.2974 28 22.3003 28 22.3032 28C22.3062 28 22.3092 28 22.3122 28C22.3152 28 22.3182 28 22.3212 28C22.3243 28 22.3274 28 22.3305 28C22.3336 28 22.3367 28 22.3399 28C22.3431 28 22.3463 28 22.3495 28C22.3527 28 22.356 28 22.3593 28C22.3625 28 22.3658 28 22.3692 28C22.3725 28 22.3759 28 22.3793 28C22.3827 28 22.3861 28 22.3895 28C22.393 28 22.3965 28 22.4 28C22.4035 28 22.407 28 22.4106 28C22.4141 28 22.4177 28 22.4214 28C22.425 28 22.4286 28 22.4323 28C22.436 28 22.4397 28 22.4435 28C22.4472 28 22.451 28 22.4548 28C22.4586 28 22.4624 28 22.4662 28C22.4701 28 22.474 28 22.4779 28C22.4818 28 22.4858 28 22.4897 28C22.4937 28 22.4977 28 22.5018 28C22.5058 28 22.5099 28 22.5139 28C22.518 28 22.5222 28 22.5263 28C22.5305 28 22.5347 28 22.5389 28C22.5431 28 22.5473 28 22.5516 28C22.5559 28 22.5602 28 22.5645 28C22.5689 28 22.5732 28 22.5776 28C22.582 28 22.5865 28 22.5909 28C22.5954 28 22.5999 28 22.6044 28C22.6089 28 22.6135 28 22.6181 28C22.6226 28 22.6273 28 22.6319 28C22.6365 28 22.6412 28 22.6459 28C22.6506 28 22.6554 28 22.6601 28C22.6649 28 22.6697 28 22.6746 28C22.6794 28 22.6843 28 22.6892 28C22.694 28 22.699 28 22.7039 28C22.7089 28 22.7139 28 22.7189 28C22.7239 28 22.729 28 22.7341 28C22.7392 28 22.7443 28 22.7494 28C22.7546 28 22.7598 28 22.765 28C22.7702 28 22.7755 28 22.7808 28C22.786 28 22.7914 28 22.7967 28C22.802 28 22.8074 28 22.8128 28C22.8183 28 22.8237 28 22.8292 28C22.8347 28 22.8402 28 22.8457 28C22.8513 28 22.8568 28 22.8624 28C22.8681 28 22.8737 28 22.8794 28V34C22.8737 34 22.8681 34 22.8624 34C22.8568 34 22.8513 34 22.8457 34C22.8402 34 22.8347 34 22.8292 34C22.8237 34 22.8183 34 22.8128 34C22.8074 34 22.802 34 22.7967 34C22.7914 34 22.786 34 22.7808 34C22.7755 34 22.7702 34 22.765 34C22.7598 34 22.7546 34 22.7494 34C22.7443 34 22.7392 34 22.7341 34C22.729 34 22.7239 34 22.7189 34C22.7139 34 22.7089 34 22.7039 34C22.699 34 22.694 34 22.6892 34C22.6843 34 22.6794 34 22.6746 34C22.6697 34 22.6649 34 22.6601 34C22.6554 34 22.6506 34 22.6459 34C22.6412 34 22.6365 34 22.6319 34C22.6273 34 22.6226 34 22.6181 34C22.6135 34 22.6089 34 22.6044 34C22.5999 34 22.5954 34 22.5909 34C22.5865 34 22.582 34 22.5776 34C22.5732 34 22.5689 34 22.5645 34C22.5602 34 22.5559 34 22.5516 34C22.5473 34 22.5431 34 22.5389 34C22.5347 34 22.5305 34 22.5263 34C22.5222 34 22.518 34 22.5139 34C22.5099 34 22.5058 34 22.5018 34C22.4977 34 22.4937 34 22.4897 34C22.4858 34 22.4818 34 22.4779 34C22.474 34 22.4701 34 22.4662 34C22.4624 34 22.4586 34 22.4548 34C22.451 34 22.4472 34 22.4435 34C22.4397 34 22.436 34 22.4323 34C22.4286 34 22.425 34 22.4214 34C22.4177 34 22.4141 34 22.4106 34C22.407 34 22.4035 34 22.4 34C22.3965 34 22.393 34 22.3895 34C22.3861 34 22.3827 34 22.3793 34C22.3759 34 22.3725 34 22.3692 34C22.3658 34 22.3625 34 22.3593 34C22.356 34 22.3527 34 22.3495 34C22.3463 34 22.3431 34 22.3399 34C22.3367 34 22.3336 34 22.3305 34C22.3274 34 22.3243 34 22.3212 34C22.3182 34 22.3152 34 22.3122 34C22.3092 34 22.3062 34 22.3032 34C22.3003 34 22.2974 34 22.2945 34C22.2916 34 22.2887 34 22.2859 34C22.283 34 22.2802 34 22.2775 34C22.2747 34 22.2719 34 22.2692 34C22.2665 34 22.2638 34 22.2611 34C22.2584 34 22.2558 34 22.2531 34C22.2505 34 22.2479 34 22.2453 34C22.2428 34 22.2402 34 22.2377 34C22.2352 34 22.2327 34 22.2302 34C22.2278 34 22.2253 34 22.2229 34C22.2205 34 22.2181 34 22.2158 34C22.2134 34 22.2111 34 22.2088 34C22.2065 34 22.2042 34 22.2019 34C22.1997 34 22.1975 34 22.1952 34C22.193 34 22.1909 34 22.1887 34C22.1866 34 22.1844 34 22.1823 34C22.1802 34 22.1782 34 22.1761 34C22.174 34 22.172 34 22.17 34C22.168 34 22.166 34 22.1641 34C22.1621 34 22.1602 34 22.1583 34C22.1564 34 22.1545 34 22.1527 34C22.1508 34 22.149 34 22.1472 34C22.1454 34 22.1436 34 22.1419 34C22.1401 34 22.1384 34 22.1367 34C22.135 34 22.1333 34 22.1316 34C22.13 34 22.1283 34 22.1267 34C22.1251 34 22.1235 34 22.122 34C22.1204 34 22.1189 34 22.1174 34C22.1159 34 22.1144 34 22.1129 34C22.1114 34 22.11 34 22.1086 34C22.1072 34 22.1058 34 22.1044 34C22.103 34 22.1017 34 22.1003 34C22.099 34 22.0977 34 22.0964 34C22.0952 34 22.0939 34 22.0927 34C22.0914 34 22.0902 34 22.0891 34C22.0879 34 22.0867 34 22.0856 34C22.0844 34 22.0833 34 22.0822 34C22.0811 34 22.08 34 22.079 34C22.0779 34 22.0769 34 22.0759 34C22.0749 34 22.0739 34 22.073 34C22.072 34 22.0711 34 22.0701 34C22.0692 34 22.0683 34 22.0675 34C22.0666 34 22.0657 34 22.0649 34C22.0641 34 22.0633 34 22.0625 34C22.0617 34 22.0609 34 22.0602 34C22.0594 34 22.0587 34 22.058 34C22.0573 34 22.0567 34 22.056 34C22.0553 34 22.0547 34 22.0541 34C22.0535 34 22.0529 34 22.0523 34C22.0517 34 22.0512 34 22.0507 34C22.0501 34 22.0496 34 22.0491 34C22.0486 34 22.0482 34 22.0477 34C22.0473 34 22.0469 34 22.0465 34C22.0461 34 22.0457 34 22.0453 34C22.0449 34 22.0446 34 22.0443 34C22.0439 34 22.0436 34 22.0434 34C22.0431 34 22.0428 34 22.0426 34C22.0423 34 22.0421 34 22.0419 34C22.0417 34 22.0415 34 22.0414 34C22.0412 34 22.041 34 22.0409 34C22.0408 34 22.0407 34 22.0406 34C22.0405 34 22.0405 34 22.0404 34C22.0404 34 22.0403 34 22.0403 34C22.0403 31 22.0403 28 22.0404 28C22.0404 28 22.0404 28 22.0405 28C22.0406 28 22.0407 28 22.0408 28C22.0409 28 22.041 28 22.0412 28C22.0413 28 22.0415 28 22.0416 28C22.0418 28 22.042 28 22.0422 28C22.0425 28 22.0427 28 22.0429 28C22.0432 28 22.0435 28 22.0438 28C22.0441 28 22.0444 28 22.0447 28C22.045 28 22.0454 28 22.0457 28C22.0461 28 22.0465 28 22.0469 28C22.0473 28 22.0477 28 22.0481 28C22.0486 28 22.049 28 22.0495 28C22.05 28 22.0505 28 22.051 28C22.0515 28 22.052 28 22.0525 28C22.0531 28 22.0536 28 22.0542 28C22.0548 28 22.0554 28 22.056 28C22.0566 28 22.0572 28 22.0578 28C22.0585 28 22.0592 28 22.0598 28C22.0605 28 22.0612 28 22.0619 28C22.0626 28 22.0633 28 22.0641 28C22.0648 28 22.0656 28 22.0664 28C22.0671 28 22.0679 28 22.0687 28C22.0695 28 22.0704 28 22.0712 28C22.0721 28 22.0729 28 22.0738 28C22.0747 28 22.0755 28 22.0764 28C22.0774 28 22.0783 28 22.0792 28C22.0801 28 22.0811 28 22.0821 28C22.083 28 22.084 28 22.085 28C22.086 28 22.087 28 22.0881 28C22.0891 28 22.0901 28 22.0912 28C22.0922 28 22.0933 28 22.0944 28C22.0955 28 22.0966 28 22.0977 28C22.0988 28 22.1 28 22.1011 28C22.1023 28 22.1034 28 22.1046 28C22.1058 28 22.107 28 22.1082 28C22.1094 28 22.1106 28 22.1119 28C22.1131 28 22.1144 28 22.1156 28C22.1169 28 22.1182 28 22.1195 28C22.1208 28 22.1221 28 22.1234 28C22.1247 28 22.1261 28 22.1274 28C22.1288 28 22.1301 28 22.1315 28C22.1329 28 22.1343 28 22.1357 28C22.1371 28 22.1385 28 22.1399 28C22.1414 28 22.1428 28 22.1443 28C22.1457 28 22.1472 28 22.1487 28C22.1502 28 22.1517 28 22.1532 28C22.1547 28 22.1562 28 22.1578 28C22.1593 28 22.1609 28 22.1624 28C22.164 28 22.1656 28 22.1672 28C22.1688 28 22.1704 28 22.172 28C22.1736 28 22.1752 28 22.1769 28C22.1785 28 22.1802 28 22.1818 28C22.1835 28 22.1852 28 22.1869 28C22.1885 28 22.1903 28 22.192 28C22.1937 28 22.1954 28 22.1971 28C22.1989 28 22.2006 28 22.2024 28C22.2042 28 22.2059 28 22.2077 28C22.2095 28 22.2113 28 22.2131 28C22.2149 28 22.2167 28 22.2186 28C22.2204 28 22.2223 28 22.2241 28C22.226 28 22.2278 28 22.2297 28C22.2316 28 22.2335 28 22.2354 28C22.2373 28 22.2392 28 22.2411 28C22.243 28 22.245 28 22.2469 28C22.2488 28 22.2508 28 22.2528 28C22.2547 28 22.2567 28 22.2587 28C22.2607 28 22.2627 28 22.2647 28C22.2667 28 22.2687 28 22.2707 28C22.2728 28 22.2748 28 22.2768 28C22.2789 28 22.2809 28 22.283 28C22.2851 28 22.2872 28 22.2892 28C22.2913 28 22.2934 28 22.2955 28C22.2977 28 22.2998 28 22.3019 28C22.304 28 22.3062 28 22.3083 28C22.3105 28 22.3126 28 22.3148 28C22.3169 28 22.3191 28 22.3213 28C22.3235 28 22.3257 28 22.3279 28C22.3301 28 22.3323 28 22.3345 28C22.3367 28 22.339 28 22.3412 28C22.3434 28 22.3457 28 22.3479 28C22.3502 28 22.3524 28 22.3547 28C22.357 28 22.3593 28 22.3616 28C22.3639 28 22.3662 28 22.3685 28C22.3708 28 22.3731 28 22.3754 28C22.3777 28 22.3801 28 22.3824 28C22.3847 28 22.3871 28 22.3894 28C22.3918 28 22.3942 28 22.3965 28C22.3989 28 22.4013 28 22.4037 28C22.406 28 22.4084 28 22.4108 28C22.4132 28 22.4156 28 22.4181 28C22.4205 28 22.4229 28 22.4253 28C22.4278 28 22.4302 28 22.4327 28C22.4351 28 22.4375 28 22.44 28C22.4425 28 22.4449 28 22.4474 28C22.4499 28 22.4524 28 22.4548 28C22.4573 28 22.4598 28 22.4623 28C22.4648 28 22.4673 28 22.4699 28C22.4724 28 22.4749 28 22.4774 28C22.4799 28 22.4825 28 22.485 28C22.4875 28 22.4901 28 22.4926 28C22.4952 28 22.4978 28 22.5003 28C22.5029 28 22.5055 28 22.508 28C22.5106 28 22.5132 28 22.5158 28C22.5184 28 22.521 28 22.5235 28C22.5261 28 22.5287 28 22.5314 28C22.534 28 22.5366 28 22.5392 28C22.5418 28 22.5444 28 22.5471 28C22.5497 28 22.5523 28 22.555 28C22.5576 28 22.5603 28 22.5629 28C22.5656 28 22.5682 28 22.5709 28C22.5736 28 22.5762 28 22.5789 28C22.5816 28 22.5842 28 22.5869 28C22.5896 28 22.5923 28 22.595 28C22.5976 28 22.6003 28 22.603 28C22.6057 28 22.6084 28 22.6111 28C22.6138 28 22.6166 28 22.6193 28C22.622 28 22.6247 28 22.6274 28C22.6301 28 22.6329 28 22.6356 28C22.6383 28 22.6411 28 22.6438 28C22.6465 28 22.6493 28 22.652 28C22.6548 28 22.6575 28 22.6603 28C22.663 28 22.6658 28 22.6685 28C22.6713 28 22.674 28 22.6768 28C22.6796 28 22.6823 28 22.6851 28C22.6879 28 22.6906 28 22.6934 28C22.6962 28 22.699 28 22.7018 28C22.7045 28 22.7073 28 22.7101 28C22.7129 28 22.7157 28 22.7185 28C22.7213 28 22.7241 28 22.7269 28C22.7297 28 22.7325 28 22.7353 28C22.7381 28 22.7409 28 22.7437 28C22.7465 28 22.7493 28 22.7521 28C22.7549 28 22.7577 28 22.7605 28C22.7633 28 22.7661 28 22.769 28C22.7718 28 22.7746 28 22.7774 28C22.7802 28 22.7831 28 22.7859 28C22.7887 28 22.7915 28 22.7944 28C22.7972 28 22.8 28 22.8028 28C22.8057 28 22.8085 28 22.8113 28C22.8141 28 22.817 28 22.8198 28C22.8226 28 22.8255 28 22.8283 28C22.8311 28 22.834 28 22.8368 28C22.8396 28 22.8425 28 22.8453 28C22.8482 28 22.851 28 22.8538 28C22.8567 28 22.8595 28 22.8623 28C22.8652 28 22.868 28 22.8709 28C22.8737 28 22.8765 28 22.8794 28C22.8822 28 22.885 28 22.8879 28C22.8907 28 22.8936 28 22.8964 28C22.8992 28 22.9021 28 22.9049 28C22.9078 28 22.9106 28 22.9134 28C22.9163 28 22.9191 28 22.9219 28C22.9248 28 22.9276 28 22.9304 28C22.9333 28 22.9361 28 22.9389 28C22.9418 28 22.9446 28 22.9474 28C22.9503 28 22.9531 28 22.9559 28C22.9587 28 22.9616 28 22.9644 28C22.9672 28 22.97 28 22.9729 28C22.9757 28 22.9785 28 22.9813 28C22.9842 28 22.987 28 22.9898 28C22.9926 28 22.9954 28 22.9982 28C23.001 28 23.0039 28 23.0067 28C23.0095 28 23.0123 28 23.0151 28C23.0179 28 23.0207 28 23.0235 28C23.0263 28 23.0291 28 23.0319 28C23.0347 28 23.0375 28 23.0403 28C23.0431 28 23.0459 28 23.0486 28C23.0514 28 23.0542 28 23.057 28C23.0598 28 23.0626 28 23.0653 28C23.0681 28 23.0709 28 23.0736 28C23.0764 28 23.0792 28 23.0819 28C23.0847 28 23.0875 28 23.0902 28C23.093 28 23.0957 28 23.0985 28C23.1012 28 23.104 28 23.1067 28C23.1095 28 23.1122 28 23.1149 28C23.1177 28 23.1204 28 23.1231 28C23.1259 28 23.1286 28 23.1313 28C23.134 28 23.1368 28 23.1395 28C23.1422 28 23.1449 28 23.1476 28C23.1503 28 23.153 28 23.1557 28C23.1584 28 23.1611 28 23.1638 28C23.1665 28 23.1692 28 23.1718 28C23.1745 28 23.1772 28 23.1799 28C23.1825 28 23.1852 28 23.1879 28C23.1905 28 23.1932 28 23.1958 28C23.1985 28 23.2011 28 23.2038 28C23.2064 28 23.209 28 23.2117 28C23.2143 28 23.2169 28 23.2195 28C23.2222 28 23.2248 28 23.2274 28C23.23 28 23.2326 28 23.2352 28C23.2378 28 23.2404 28 23.243 28C23.2456 28 23.2481 28 23.2507 28C23.2533 28 23.2559 28 23.2584 28C23.261 28 23.2635 28 23.2661 28C23.2687 28 23.2712 28 23.2737 28C23.2763 28 23.2788 28 23.2813 28C23.2839 28 23.2864 28 23.2889 28C23.2914 28 23.2939 28 23.2964 28C23.2989 28 23.3014 28 23.3039 28C23.3064 28 23.3089 28 23.3113 28C23.3138 28 23.3163 28 23.3187 28C23.3212 28 23.3237 28 23.3261 28C23.3285 28 23.331 28 23.3334 28C23.3358 28 23.3383 28 23.3407 28C23.3431 28 23.3455 28 23.3479 28C23.3503 28 23.3527 28 23.3551 28C23.3575 28 23.3599 28 23.3622 28C23.3646 28 23.367 28 23.3693 28C23.3717 28 23.374 28 23.3764 28C23.3787 28 23.381 28 23.3833 28C23.3857 28 23.388 28 23.3903 28C23.3926 28 23.3949 28 23.3972 28C23.3995 28 23.4018 28 23.404 28C23.4063 28 23.4086 28 23.4108 28C23.4131 28 23.4153 28 23.4176 28C23.4198 28 23.422 28 23.4242 28C23.4265 28 23.4287 28 23.4309 28C23.4331 28 23.4353 28 23.4375 28C23.4396 28 23.4418 28 23.444 28C23.4461 28 23.4483 28 23.4504 28C23.4526 28 23.4547 28 23.4569 28C23.459 28 23.4611 28 23.4632 28C23.4653 28 23.4674 28 23.4695 28C23.4716 28 23.4737 28 23.4757 28C23.4778 28 23.4799 28 23.4819 28C23.484 28 23.486 28 23.488 28C23.49 28 23.4921 28 23.4941 28C23.4961 28 23.4981 28 23.5001 28C23.502 28 23.504 28 23.506 28C23.5079 28 23.5099 28 23.5118 28C23.5138 28 23.5157 28 23.5176 28C23.5196 28 23.5215 28 23.5234 28C23.5253 28 23.5272 28 23.529 28C23.5309 28 23.5328 28 23.5346 28C23.5365 28 23.5383 28 23.5402 28C23.542 28 23.5438 28 23.5456 28C23.5474 28 23.5492 28 23.551 28C23.5528 28 23.5546 28 23.5563 28C23.5581 28 23.5599 28 23.5616 28C23.5633 28 23.5651 28 23.5668 28C23.5685 28 23.5702 28 23.5719 28C23.5736 28 23.5753 28 23.5769 28C23.5786 28 23.5802 28 23.5819 28C23.5835 28 23.5852 28 23.5868 28C23.5884 28 23.59 28 23.5916 28C23.5932 28 23.5947 28 23.5963 28C23.5979 28 23.5994 28 23.601 28C23.6025 28 23.604 28 23.6055 28C23.6071 28 23.6086 28 23.61 28C23.6115 28 23.613 28 23.6145 28C23.6159 28 23.6174 28 23.6188 28C23.6202 28 23.6217 28 23.6231 28C23.6245 28 23.6259 28 23.6272 28C23.6286 28 23.63 28 23.6313 28C23.6327 28 23.634 28 23.6353 28C23.6367 28 23.638 28 23.6393 28C23.6406 28 23.6418 28 23.6431 28C23.6444 28 23.6456 28 23.6469 28C23.6481 28 23.6493 28 23.6505 28C23.6517 28 23.6529 28 23.6541 28C23.6553 28 23.6565 28 23.6576 28C23.6588 28 23.6599 28 23.661 28C23.6621 28 23.6632 28 23.6643 28C23.6654 28 23.6665 28 23.6676 28C23.6686 28 23.6697 28 23.6707 28C23.6717 28 23.6727 28 23.6737 28C23.6747 28 23.6757 28 23.6767 28C23.6777 28 23.6786 28 23.6795 28C23.6805 28 23.6814 28 23.6823 28C23.6832 28 23.6841 28 23.685 28C23.6858 28 23.6867 28 23.6875 28C23.6884 28 23.6892 28 23.69 28C23.6908 28 23.6916 28 23.6924 28C23.6932 28 23.6939 28 23.6947 28C23.6954 28 23.6961 28 23.6968 28C23.6975 28 23.6982 28 23.6989 28C23.6996 28 23.7003 28 23.7009 28C23.7015 28 23.7022 28 23.7028 28C23.7034 28 23.704 28 23.7045 28C23.7051 28 23.7057 28 23.7062 28C23.7068 28 23.7073 28 23.7078 28C23.7083 28 23.7088 28 23.7093 28C23.7097 28 23.7102 28 23.7106 28C23.711 28 23.7115 28 23.7119 28C23.7123 28 23.7126 28 23.713 28C23.7134 28 23.7137 28 23.714 28C23.7144 28 23.7147 28 23.715 28C23.7153 28 23.7155 28 23.7158 28C23.7161 28 23.7163 28 23.7165 28C23.7167 28 23.7169 28 23.7171 28C23.7173 28 23.7175 28 23.7176 28C23.7177 28 23.7179 28 23.718 28C23.7181 28 23.7182 28 23.7182 28C23.7183 28 23.7184 28 23.7184 28C23.7184 28 23.7184 31 23.7184 34C23.7184 34 23.7184 34 23.7183 34C23.7183 34 23.7182 34 23.7181 34C23.7181 34 23.718 34 23.7178 34C23.7177 34 23.7176 34 23.7174 34C23.7172 34 23.717 34 23.7168 34C23.7166 34 23.7164 34 23.7162 34C23.7159 34 23.7157 34 23.7154 34C23.7151 34 23.7148 34 23.7145 34C23.7142 34 23.7138 34 23.7134 34C23.7131 34 23.7127 34 23.7123 34C23.7119 34 23.7115 34 23.711 34C23.7106 34 23.7101 34 23.7096 34C23.7091 34 23.7086 34 23.7081 34C23.7076 34 23.707 34 23.7064 34C23.7059 34 23.7053 34 23.7047 34C23.704 34 23.7034 34 23.7028 34C23.7021 34 23.7014 34 23.7007 34C23.7 34 23.6993 34 23.6986 34C23.6978 34 23.6971 34 23.6963 34C23.6955 34 23.6947 34 23.6938 34C23.693 34 23.6922 34 23.6913 34C23.6904 34 23.6895 34 23.6886 34C23.6877 34 23.6868 34 23.6858 34C23.6848 34 23.6839 34 23.6828 34C23.6818 34 23.6808 34 23.6798 34C23.6787 34 23.6776 34 23.6765 34C23.6754 34 23.6743 34 23.6732 34C23.672 34 23.6709 34 23.6697 34C23.6685 34 23.6673 34 23.6661 34C23.6648 34 23.6636 34 23.6623 34C23.661 34 23.6597 34 23.6584 34C23.6571 34 23.6557 34 23.6544 34C23.653 34 23.6516 34 23.6502 34C23.6488 34 23.6473 34 23.6458 34C23.6444 34 23.6429 34 23.6414 34C23.6399 34 23.6383 34 23.6368 34C23.6352 34 23.6336 34 23.632 34C23.6304 34 23.6288 34 23.6271 34C23.6255 34 23.6238 34 23.6221 34C23.6204 34 23.6186 34 23.6169 34C23.6151 34 23.6134 34 23.6115 34C23.6097 34 23.6079 34 23.6061 34C23.6042 34 23.6023 34 23.6004 34C23.5985 34 23.5966 34 23.5947 34C23.5927 34 23.5907 34 23.5887 34C23.5867 34 23.5847 34 23.5826 34C23.5806 34 23.5785 34 23.5764 34C23.5743 34 23.5722 34 23.57 34C23.5679 34 23.5657 34 23.5635 34C23.5613 34 23.5591 34 23.5568 34C23.5546 34 23.5523 34 23.55 34C23.5477 34 23.5453 34 23.543 34C23.5406 34 23.5382 34 23.5358 34C23.5334 34 23.531 34 23.5285 34C23.526 34 23.5235 34 23.521 34C23.5185 34 23.516 34 23.5134 34C23.5108 34 23.5082 34 23.5056 34C23.503 34 23.5003 34 23.4977 34C23.495 34 23.4923 34 23.4896 34C23.4868 34 23.4841 34 23.4813 34C23.4785 34 23.4757 34 23.4729 34C23.47 34 23.4672 34 23.4643 34C23.4614 34 23.4585 34 23.4555 34C23.4526 34 23.4496 34 23.4466 34C23.4436 34 23.4406 34 23.4375 34C23.4345 34 23.4314 34 23.4283 34C23.4251 34 23.422 34 23.4188 34C23.4157 34 23.4125 34 23.4093 34C23.406 34 23.4028 34 23.3995 34C23.3962 34 23.3929 34 23.3896 34C23.3862 34 23.3829 34 23.3795 34C23.3761 34 23.3727 34 23.3692 34C23.3658 34 23.3623 34 23.3588 34C23.3553 34 23.3517 34 23.3482 34C23.3446 34 23.341 34 23.3374 34C23.3338 34 23.3301 34 23.3264 34C23.3227 34 23.319 34 23.3153 34C23.3116 34 23.3078 34 23.304 34C23.3002 34 23.2964 34 23.2925 34C23.2886 34 23.2848 34 23.2808 34C23.2769 34 23.273 34 23.269 34C23.265 34 23.261 34 23.257 34C23.253 34 23.2489 34 23.2448 34C23.2407 34 23.2366 34 23.2324 34C23.2283 34 23.2241 34 23.2199 34C23.2157 34 23.2114 34 23.2071 34C23.2029 34 23.1985 34 23.1942 34C23.1899 34 23.1855 34 23.1811 34C23.1767 34 23.1723 34 23.1678 34C23.1634 34 23.1589 34 23.1544 34C23.1498 34 23.1453 34 23.1407 34C23.1361 34 23.1315 34 23.1268 34C23.1222 34 23.1175 34 23.1128 34C23.1081 34 23.1034 34 23.0986 34C23.0938 34 23.089 34 23.0842 34C23.0794 34 23.0745 34 23.0696 34C23.0647 34 23.0598 34 23.0548 34C23.0498 34 23.0449 34 23.0398 34C23.0348 34 23.0297 34 23.0247 34C23.0196 34 23.0145 34 23.0093 34C23.0041 34 22.999 34 22.9937 34C22.9885 34 22.9833 34 22.978 34C22.9727 34 22.9674 34 22.962 34C22.9567 34 22.9513 34 22.9459 34C22.9405 34 22.935 34 22.9296 34C22.9241 34 22.9186 34 22.913 34C22.9075 34 22.9019 34 22.8963 34C22.8907 34 22.885 34 22.8794 34V28ZM22.695 28.0057L37.8736 27.071L38.2423 33.0597L23.0638 33.9943L22.695 28.0057ZM35.4819 28.5279C35.4696 28.5485 35.5391 28.429 35.6315 28.0707C35.7181 27.7345 35.7987 27.292 35.8663 26.7422C36.0017 25.6397 36.0628 24.2915 36.0774 22.8495C36.092 21.4185 36.0605 19.9602 36.0242 18.6475C35.989 17.3751 35.9461 16.1589 35.9461 15.3442H41.9461C41.9461 16.0484 41.9839 17.1105 42.0219 18.4815C42.0587 19.8121 42.0929 21.3623 42.0771 22.9105C42.0615 24.4479 41.9964 26.0497 41.8215 27.4737C41.6614 28.7771 41.3644 30.3791 40.6341 31.6028L35.4819 28.5279ZM35.9461 15.3442C35.9461 8.69932 30.2161 3 22.9601 3V-3C33.3048 -3 41.9461 5.165 41.9461 15.3442H35.9461ZM22.9601 3C15.5933 3 9.81267 8.72803 9.81267 15.3442H3.81267C3.81267 5.13628 12.5647 -3 22.9601 -3V3ZM9.81267 15.3442C9.81267 22.2613 15.5824 28 22.8794 28V34C12.4141 34 3.81267 25.7186 3.81267 15.3442H9.81267Z" fill="#FFDD2D" mask="url(#path-6-inside-2_782_1454)"/>
<circle cx="2" cy="2" r="2" transform="matrix(-1 0 0 1 31.5703 14)" fill="#FFDD2D"/>
<circle cx="2" cy="2" r="2" transform="matrix(-1 0 0 1 25.5703 14)" fill="#FFDD2D"/>
<circle cx="2" cy="2" r="2" transform="matrix(-1 0 0 1 19.5703 14)" fill="#FFDD2D"/>
</svg>
